<svg xmlns="http://www.w3.org/2000/svg" width="694.772" height="517.756" viewBox="0 0 694.772 517.756">
  <g id="Group_117085" data-name="Group 117085" transform="translate(0 -54.953)">
    <g id="Background_Complete" data-name="Background Complete" transform="translate(0 54.953)">
      <g id="Group_117052" data-name="Group 117052">
        <rect id="Rectangle_17789" data-name="Rectangle 17789" width="694.772" height="0.347" transform="translate(0 455)" fill="#ebebeb"/>
        <rect id="Rectangle_17790" data-name="Rectangle 17790" width="46.025" height="0.347" transform="translate(579.133 477.366)" fill="#ebebeb"/>
        <rect id="Rectangle_17791" data-name="Rectangle 17791" width="12.08" height="0.347" transform="translate(448.165 481.137)" fill="#ebebeb"/>
        <rect id="Rectangle_17792" data-name="Rectangle 17792" width="26.669" height="0.347" transform="translate(551.073 464.462)" fill="#ebebeb"/>
        <rect id="Rectangle_17793" data-name="Rectangle 17793" width="60.019" height="0.347" transform="translate(72.894 466.797)" fill="#ebebeb"/>
        <rect id="Rectangle_17794" data-name="Rectangle 17794" width="8.8" height="0.347" transform="translate(145.285 466.797)" fill="#ebebeb"/>
        <rect id="Rectangle_17795" data-name="Rectangle 17795" width="130.167" height="0.347" transform="translate(182.685 472.664)" fill="#ebebeb"/>
        <path id="Path_302359" data-name="Path 302359" d="M314.458,447.981H46.139a7.941,7.941,0,0,1-7.932-7.931V62.883a7.94,7.94,0,0,1,7.932-7.93h268.32a7.94,7.94,0,0,1,7.93,7.93V440.05A7.941,7.941,0,0,1,314.458,447.981ZM46.139,55.3a7.592,7.592,0,0,0-7.584,7.583V440.05a7.592,7.592,0,0,0,7.584,7.584h268.32a7.592,7.592,0,0,0,7.583-7.584V62.883a7.591,7.591,0,0,0-7.583-7.583Z" transform="translate(14.883 -54.953)" fill="none"/>
        <path id="Path_302360" data-name="Path 302360" d="M530.753,447.981H262.435a7.94,7.94,0,0,1-7.93-7.931V62.883a7.939,7.939,0,0,1,7.93-7.93H530.753a7.94,7.94,0,0,1,7.933,7.93V440.05A7.941,7.941,0,0,1,530.753,447.981ZM262.435,55.3a7.591,7.591,0,0,0-7.583,7.583V440.05a7.592,7.592,0,0,0,7.583,7.584H530.753a7.593,7.593,0,0,0,7.585-7.584V62.883a7.593,7.593,0,0,0-7.585-7.583Z" transform="translate(99.141 -54.953)" fill="none"/>
      </g>
      <g id="Group_117055" data-name="Group 117055" transform="translate(80.994 28.288)">
        <path id="Path_302361" data-name="Path 302361" d="M81.581,377.028c-.329-3.97.213-9.114,4.845-10.643,7.854-2.59,12.513-8.672,12.25-15.552s8-13.574,14.2-7.127,5.375-4.957,13.641-7.729,15.274,3.953,13.01,10.1,5.894,9.984,15.663,4.758,20.515,4.281,18.449,11.721-.375,8.268,5.806,5.787c4.994-2,13.167,2.2,14.079,8.686Z" transform="translate(-49.245 25.98)" fill="#e0e0e0"/>
        <path id="Path_302362" data-name="Path 302362" d="M362.11,374.625c-.382-3.145-.214-7.731,3.686-9.018,6.1-2.011,9.714-6.732,9.51-12.072S381.52,343,386.332,348s4.171-3.848,10.59-6,11.857,3.068,10.1,7.84,4.576,7.749,12.158,3.693,15.926,3.322,14.322,9.1-.292,6.417,4.506,4.492c4.067-1.631,10.825,2.045,10.969,7.5Z" transform="translate(60.01 28.383)" fill="#e0e0e0"/>
        <path id="Path_302363" data-name="Path 302363" d="M430.957,381.858H288.235c-2.008-6.7,3.183-14.731,8.837-15.862,6.948-1.39,13.932-13.615,14.261-21.4s12.835-31.722,32.289-16.939,13.541,2.177,27.614-1.976,22.95,7.8,16.775,16.759c0,0,14.136-3.543,19.959,9.657s0,21.4,0,21.4S425.842,372.98,430.957,381.858Z" transform="translate(31.115 21.15)" fill="#e0e0e0"/>
        <path id="Path_302364" data-name="Path 302364" d="M221.077,103.738a6.71,6.71,0,0,0-8.64-6.428,14.207,14.207,0,0,0-16.68-16.03,12.422,12.422,0,0,0-23.036,6.281c-.069,0-.138-.011-.207-.011a11.45,11.45,0,1,0,0,22.9h42.049l-.01-.01A6.706,6.706,0,0,0,221.077,103.738Z" transform="translate(-18.252 -75.311)" fill="#f5f5f5"/>
        <path id="Path_302365" data-name="Path 302365" d="M400.309,132.218a6.706,6.706,0,0,0-8.64-6.428,14.207,14.207,0,0,0-16.68-16.03,12.422,12.422,0,0,0-23.036,6.281c-.069,0-.138-.011-.207-.011a11.45,11.45,0,1,0,0,22.9h42.048l-.008-.01A6.706,6.706,0,0,0,400.309,132.218Z" transform="translate(51.567 -64.217)" fill="#f5f5f5"/>
        <path id="Path_302366" data-name="Path 302366" d="M284.327,115.195a4.17,4.17,0,0,0-5.371-4,8.838,8.838,0,0,0-8.743-10.117,8.975,8.975,0,0,0-1.629.151,7.722,7.722,0,0,0-14.321,3.9c-.043,0-.085-.006-.129-.006a7.118,7.118,0,1,0,0,14.236h26.141l0-.006A4.17,4.17,0,0,0,284.327,115.195Z" transform="translate(15.23 -66.659)" fill="#f5f5f5"/>
        <path id="Path_302367" data-name="Path 302367" d="M441.2,109.328a4.166,4.166,0,0,0-5.371-4,9.076,9.076,0,0,0,.093-1.283,8.829,8.829,0,0,0-10.465-8.683,7.722,7.722,0,0,0-14.321,3.9c-.044,0-.086-.007-.129-.007a7.119,7.119,0,1,0,0,14.237h26.141l-.006-.007A4.171,4.171,0,0,0,441.2,109.328Z" transform="translate(76.34 -68.945)" fill="#f5f5f5"/>
        <path id="Path_302368" data-name="Path 302368" d="M115.383,127.477a4.17,4.17,0,0,0-5.371-4,8.83,8.83,0,0,0-10.372-9.966,7.722,7.722,0,0,0-14.321,3.9c-.043,0-.085-.006-.129-.006a7.119,7.119,0,0,0,0,14.237h26.141l0-.007A4.168,4.168,0,0,0,115.383,127.477Z" transform="translate(-50.581 -61.875)" fill="#f5f5f5"/>
        <g id="Group_117053" data-name="Group 117053" transform="translate(293.284 83.304)">
          <path id="Path_302369" data-name="Path 302369" d="M391.093,222.268a12.8,12.8,0,0,0,.395-2.608c.321-5.412,5.487-4.554,9.882-5.289,3.434-.574-5.658-9.247,1.264-12.046,1.287-.52,2.683-1.106,3.342-2.327.868-1.616-.011-3.742-1.509-4.8a9.287,9.287,0,0,0-5.255-1.317c-1.13-1.373-.211-3.439.882-4.841s2.43-3,2.016-4.726c-.625-2.611-4.273-2.7-6.909-2.2-.974-1.577-.955-3.549-1.427-5.341s-1.9-3.674-3.738-3.45c-1.734.211-2.793,2.169-4.492,2.569-1.975.465-3.684-1.28-5.232-2.59s-4.258-2.126-5.323-.4c-.639,1.032-.257,2.472-.92,3.489-1.151,1.762-3.878.668-5.571-.581s-4.391-2.382-5.583-.648a7.294,7.294,0,0,0-.656,1.811c-.8,2.311-3.3,3.463-5.247,4.945s-3.488,4.431-1.841,6.24c.813.892,2.243,1.255,2.646,2.391.5,1.421-.948,2.7-2.1,3.673-1.913,1.627-2.259,6.5.27,7.827,1.062.559,2.619.731,2.879,1.9.233,1.046-.83,1.862-1.535,2.669a5.025,5.025,0,0,0,1.538,7.483c.607.292,1.353.531,1.579,1.164a2.394,2.394,0,0,1-.145,1.415,7.43,7.43,0,0,0-.245,2.71,1.232,1.232,0,0,0,.331.85,1.294,1.294,0,0,0,.8.226c3.653.163,5.415-1.131,7.644,2.047a2.6,2.6,0,0,0,.761.809,2.377,2.377,0,0,0,1.007.251c2.511.206,4.152-1.36,6.446-1.654,3.183-.406,3.857,1.237,6.663,2.554C388.127,226.552,390.265,225.274,391.093,222.268Z" transform="translate(-236.305 -120.981)" fill="#ebebeb"/>
          <path id="Path_302370" data-name="Path 302370" d="M360.823,219a12.7,12.7,0,0,0,.395-2.608c.321-5.411,5.487-4.554,9.882-5.289,3.434-.574-5.658-9.247,1.264-12.046,1.287-.52,2.683-1.106,3.342-2.327.868-1.616-.011-3.742-1.509-4.8a9.288,9.288,0,0,0-5.255-1.317c-1.13-1.373-.211-3.439.881-4.841s2.432-3,2.018-4.726c-.625-2.611-4.273-2.7-6.909-2.2-.974-1.577-.955-3.549-1.427-5.341s-1.9-3.674-3.738-3.45c-1.734.211-2.793,2.169-4.492,2.569-1.975.465-3.684-1.28-5.232-2.59s-4.258-2.127-5.323-.4c-.639,1.032-.257,2.472-.92,3.489-1.151,1.762-3.878.668-5.571-.581s-4.391-2.382-5.583-.648a7.239,7.239,0,0,0-.656,1.811c-.8,2.311-3.3,3.463-5.247,4.945s-3.488,4.431-1.841,6.24c.813.892,2.243,1.255,2.646,2.391.506,1.421-.948,2.7-2.1,3.673-1.913,1.627-2.259,6.5.27,7.827,1.062.559,2.619.731,2.879,1.9.233,1.046-.83,1.862-1.535,2.669a5.027,5.027,0,0,0,1.538,7.484c.607.29,1.353.529,1.579,1.163a2.384,2.384,0,0,1-.146,1.415,7.459,7.459,0,0,0-.243,2.71,1.232,1.232,0,0,0,.331.85,1.294,1.294,0,0,0,.8.227c3.653.163,5.415-1.131,7.644,2.048a2.612,2.612,0,0,0,.761.807,2.383,2.383,0,0,0,1.007.252c2.511.207,4.152-1.36,6.446-1.654,3.183-.406,3.857,1.237,6.663,2.555C357.856,223.281,359.994,222,360.823,219Z" transform="translate(-248.097 -122.255)" fill="#ebebeb"/>
          <path id="Path_302371" data-name="Path 302371" d="M357.905,199.721a12.731,12.731,0,0,0,.393-2.61c.322-5.411,5.489-4.553,9.884-5.289,3.434-.573-5.658-9.247,1.264-12.045,1.285-.52,2.683-1.107,3.34-2.329.87-1.615-.01-3.741-1.508-4.8a9.3,9.3,0,0,0-5.255-1.317c-1.13-1.373-.211-3.439.881-4.841s2.432-3,2.018-4.726c-.625-2.61-4.273-2.7-6.909-2.2-.974-1.577-.956-3.549-1.428-5.341s-1.9-3.674-3.738-3.449c-1.733.211-2.792,2.168-4.492,2.568-1.973.465-3.682-1.28-5.232-2.59s-4.256-2.126-5.323-.4c-.638,1.032-.256,2.472-.919,3.489-1.151,1.762-3.878.668-5.572-.581s-4.39-2.382-5.582-.648a7.259,7.259,0,0,0-.656,1.811c-.8,2.312-3.3,3.463-5.247,4.945s-3.488,4.431-1.841,6.24c.813.892,2.243,1.255,2.646,2.391.5,1.421-.948,2.7-2.1,3.673-1.913,1.627-2.259,6.5.27,7.827,1.062.56,2.618.731,2.879,1.9.233,1.046-.83,1.862-1.535,2.669a5.026,5.026,0,0,0,1.538,7.484c.607.29,1.353.529,1.578,1.164a2.39,2.39,0,0,1-.146,1.413,7.463,7.463,0,0,0-.243,2.71,1.232,1.232,0,0,0,.331.85,1.285,1.285,0,0,0,.8.227c3.653.163,5.415-1.13,7.644,2.048a2.6,2.6,0,0,0,.761.807,2.358,2.358,0,0,0,1.007.252c2.511.207,4.152-1.36,6.446-1.652,3.183-.406,3.857,1.235,6.661,2.554C354.939,204,357.077,202.726,357.905,199.721Z" transform="translate(-249.233 -129.764)" fill="#ebebeb"/>
          <path id="Path_302372" data-name="Path 302372" d="M337.964,209.323a12.731,12.731,0,0,0,.395-2.61c.321-5.411,5.487-4.554,9.882-5.287,3.434-.574-5.658-9.249,1.266-12.046,1.285-.52,2.683-1.107,3.34-2.329.868-1.615-.011-3.741-1.508-4.8a9.306,9.306,0,0,0-5.257-1.317c-1.13-1.373-.211-3.439.882-4.841s2.43-3,2.016-4.726c-.625-2.61-4.273-2.7-6.909-2.2-.974-1.577-.955-3.549-1.427-5.341s-1.9-3.674-3.738-3.449c-1.734.211-2.793,2.168-4.492,2.568-1.975.466-3.684-1.28-5.232-2.59s-4.256-2.126-5.323-.4c-.639,1.032-.256,2.472-.92,3.489-1.151,1.762-3.878.668-5.571-.581s-4.391-2.382-5.583-.648a7.314,7.314,0,0,0-.656,1.811c-.8,2.312-3.3,3.463-5.246,4.945s-3.489,4.431-1.841,6.24c.813.893,2.241,1.255,2.646,2.391.5,1.422-.949,2.7-2.1,3.673-1.912,1.627-2.259,6.5.27,7.827,1.062.56,2.619.731,2.879,1.9.233,1.048-.83,1.862-1.535,2.669a5.027,5.027,0,0,0,1.538,7.484c.607.29,1.353.529,1.578,1.164a2.378,2.378,0,0,1-.144,1.413,7.433,7.433,0,0,0-.243,2.71,1.237,1.237,0,0,0,.329.85,1.287,1.287,0,0,0,.8.226c3.652.163,5.414-1.13,7.642,2.048a2.629,2.629,0,0,0,.762.807,2.362,2.362,0,0,0,1.007.252c2.511.207,4.152-1.36,6.446-1.652,3.183-.406,3.859,1.235,6.663,2.554C335,213.607,337.136,212.328,337.964,209.323Z" transform="translate(-257.001 -126.024)" fill="#ebebeb"/>
          <path id="Path_302373" data-name="Path 302373" d="M317.811,204.888a12.716,12.716,0,0,0,.395-2.61c.321-5.411,5.487-4.554,9.882-5.287,3.434-.574-5.658-9.249,1.264-12.046,1.287-.52,2.683-1.107,3.34-2.329.87-1.615-.01-3.741-1.508-4.8a9.3,9.3,0,0,0-5.255-1.317c-1.13-1.373-.211-3.439.881-4.841s2.432-3,2.018-4.726c-.625-2.61-4.273-2.7-6.909-2.2-.974-1.577-.955-3.549-1.427-5.341s-1.9-3.674-3.738-3.449c-1.734.211-2.793,2.168-4.492,2.568-1.975.466-3.684-1.28-5.232-2.59s-4.258-2.126-5.323-.4c-.639,1.032-.257,2.472-.92,3.489-1.151,1.762-3.878.668-5.571-.581s-4.391-2.382-5.583-.646a7.228,7.228,0,0,0-.656,1.809c-.8,2.312-3.3,3.463-5.247,4.945s-3.488,4.431-1.841,6.24c.813.893,2.243,1.255,2.646,2.391.5,1.421-.948,2.7-2.1,3.673-1.913,1.627-2.259,6.5.27,7.827,1.062.56,2.619.731,2.879,1.9.233,1.048-.83,1.862-1.535,2.669a5.027,5.027,0,0,0,1.538,7.484c.607.29,1.353.529,1.579,1.164a2.379,2.379,0,0,1-.146,1.413,7.463,7.463,0,0,0-.243,2.71,1.231,1.231,0,0,0,.331.85,1.287,1.287,0,0,0,.8.227c3.652.163,5.414-1.13,7.642,2.048a2.6,2.6,0,0,0,.762.807,2.356,2.356,0,0,0,1.007.252c2.511.207,4.152-1.36,6.446-1.652,3.183-.406,3.857,1.235,6.661,2.554C314.845,209.17,316.983,207.893,317.811,204.888Z" transform="translate(-264.852 -127.752)" fill="#ebebeb"/>
          <path id="Path_302374" data-name="Path 302374" d="M315.349,223.445a9.956,9.956,0,0,0,.31-2.055c.254-4.26,4.322-3.585,7.783-4.163,2.7-.452-4.456-7.283.995-9.485a4.8,4.8,0,0,0,2.632-1.834,3.1,3.1,0,0,0-1.188-3.78,7.33,7.33,0,0,0-4.138-1.038c-.889-1.081-.167-2.707.693-3.812s1.915-2.359,1.588-3.721c-.492-2.055-3.364-2.129-5.44-1.729-.767-1.242-.752-2.8-1.124-4.206s-1.494-2.893-2.943-2.717c-1.364.167-2.2,1.708-3.536,2.023-1.555.365-2.9-1.009-4.12-2.04s-3.352-1.674-4.191-.317c-.5.813-.2,1.947-.725,2.747-.9,1.388-3.053.527-4.385-.457s-3.457-1.876-4.4-.51a5.8,5.8,0,0,0-.517,1.426c-.631,1.82-2.6,2.728-4.13,3.895s-2.747,3.489-1.451,4.913c.641.7,1.766.988,2.083,1.883.4,1.12-.746,2.122-1.651,2.892-1.506,1.281-1.779,5.115.213,6.164.835.439,2.062.575,2.266,1.5.183.825-.653,1.467-1.209,2.1a3.958,3.958,0,0,0,1.212,5.893c.478.229,1.066.417,1.242.916a1.877,1.877,0,0,1-.114,1.113,5.856,5.856,0,0,0-.192,2.134.978.978,0,0,0,.26.67,1.012,1.012,0,0,0,.631.178c2.876.128,4.263-.889,6.02,1.613a2.03,2.03,0,0,0,.6.635,1.861,1.861,0,0,0,.793.2c1.976.163,3.268-1.071,5.075-1.3,2.507-.32,3.038.974,5.247,2.012C313.013,226.817,314.7,225.811,315.349,223.445Z" transform="translate(-262.755 -116.353)" fill="#ebebeb"/>
          <path id="Path_302375" data-name="Path 302375" d="M306.256,219a12.706,12.706,0,0,0,.393-2.608c.322-5.411,5.489-4.554,9.884-5.289,3.434-.574-5.658-9.247,1.264-12.046,1.285-.52,2.683-1.106,3.34-2.327.87-1.616-.01-3.742-1.508-4.8a9.3,9.3,0,0,0-5.257-1.317c-1.128-1.373-.21-3.439.882-4.841s2.432-3,2.018-4.726c-.625-2.611-4.274-2.7-6.909-2.2-.974-1.577-.956-3.549-1.428-5.341s-1.9-3.674-3.738-3.45c-1.733.211-2.793,2.169-4.492,2.569-1.973.465-3.682-1.28-5.232-2.59s-4.256-2.127-5.323-.4c-.638,1.032-.256,2.472-.92,3.489-1.149,1.762-3.877.668-5.571-.581s-4.391-2.382-5.582-.648a7.236,7.236,0,0,0-.656,1.811c-.8,2.311-3.3,3.463-5.247,4.945s-3.488,4.431-1.841,6.24c.813.892,2.241,1.255,2.646,2.391.5,1.421-.948,2.7-2.1,3.673-1.913,1.627-2.259,6.5.27,7.827,1.062.559,2.618.731,2.879,1.9.232,1.046-.83,1.862-1.537,2.669a5.028,5.028,0,0,0,1.54,7.484c.607.29,1.353.529,1.579,1.163a2.4,2.4,0,0,1-.146,1.415,7.46,7.46,0,0,0-.243,2.71,1.237,1.237,0,0,0,.329.85,1.3,1.3,0,0,0,.8.227c3.653.163,5.415-1.131,7.644,2.048a2.608,2.608,0,0,0,.76.807,2.383,2.383,0,0,0,1.009.252c2.511.207,4.152-1.36,6.446-1.654,3.183-.406,3.857,1.237,6.661,2.555C303.288,223.281,305.427,222,306.256,219Z" transform="translate(-269.353 -122.255)" fill="#ebebeb"/>
          <path id="Path_302376" data-name="Path 302376" d="M337.964,185.61a12.716,12.716,0,0,0,.395-2.608c.321-5.412,5.487-4.555,9.882-5.289,3.434-.574-5.658-9.247,1.266-12.046,1.285-.52,2.683-1.107,3.34-2.329.868-1.615-.011-3.741-1.508-4.8a9.3,9.3,0,0,0-5.257-1.319c-1.13-1.373-.211-3.439.882-4.841s2.43-3,2.016-4.726c-.625-2.61-4.273-2.7-6.909-2.2-.974-1.577-.955-3.55-1.427-5.343s-1.9-3.674-3.738-3.449c-1.734.211-2.793,2.168-4.492,2.569-1.975.464-3.684-1.281-5.232-2.59s-4.256-2.127-5.323-.4c-.639,1.034-.256,2.473-.92,3.489-1.151,1.763-3.878.668-5.571-.581s-4.391-2.382-5.583-.646a7.285,7.285,0,0,0-.656,1.809c-.8,2.312-3.3,3.464-5.246,4.947s-3.489,4.43-1.841,6.239c.813.893,2.241,1.255,2.646,2.393.5,1.42-.949,2.694-2.1,3.673-1.912,1.627-2.259,6.495.27,7.826,1.062.56,2.619.731,2.879,1.9.233,1.048-.83,1.862-1.535,2.671a5.025,5.025,0,0,0,1.538,7.483c.607.29,1.353.529,1.578,1.164a2.378,2.378,0,0,1-.144,1.413,7.438,7.438,0,0,0-.243,2.711,1.242,1.242,0,0,0,.329.85,1.3,1.3,0,0,0,.8.225c3.652.163,5.414-1.13,7.642,2.048a2.614,2.614,0,0,0,.762.807,2.363,2.363,0,0,0,1.007.252c2.511.207,4.152-1.36,6.446-1.652,3.183-.406,3.859,1.235,6.663,2.554C335,189.894,337.136,188.615,337.964,185.61Z" transform="translate(-257.001 -135.261)" fill="#ebebeb"/>
          <path id="Path_302377" data-name="Path 302377" d="M363.854,186.934a12.717,12.717,0,0,0,.395-2.61c.321-5.411,5.487-4.554,9.882-5.287,3.434-.574-5.658-9.247,1.266-12.046,1.285-.52,2.683-1.107,3.34-2.329.869-1.615-.011-3.741-1.508-4.8a9.3,9.3,0,0,0-5.257-1.319c-1.13-1.373-.211-3.439.882-4.841s2.43-3,2.016-4.726c-.625-2.61-4.273-2.7-6.909-2.2-.974-1.576-.955-3.549-1.427-5.341s-1.9-3.673-3.738-3.449c-1.734.211-2.793,2.168-4.492,2.569-1.975.464-3.684-1.281-5.232-2.59s-4.258-2.127-5.323-.4c-.639,1.034-.257,2.472-.92,3.489-1.151,1.763-3.878.668-5.571-.581s-4.391-2.382-5.583-.646a7.284,7.284,0,0,0-.656,1.809c-.8,2.312-3.3,3.464-5.245,4.947s-3.489,4.43-1.841,6.239c.811.893,2.241,1.255,2.646,2.393.5,1.42-.949,2.694-2.1,3.673-1.912,1.626-2.259,6.495.27,7.827,1.062.559,2.619.73,2.879,1.9.233,1.048-.83,1.862-1.535,2.669a5.027,5.027,0,0,0,1.538,7.484c.607.29,1.353.529,1.578,1.164a2.389,2.389,0,0,1-.144,1.413,7.433,7.433,0,0,0-.245,2.71,1.238,1.238,0,0,0,.331.85,1.287,1.287,0,0,0,.8.227c3.652.163,5.414-1.13,7.642,2.048a2.613,2.613,0,0,0,.761.807,2.362,2.362,0,0,0,1.007.252c2.511.207,4.152-1.36,6.446-1.652,3.183-.406,3.859,1.235,6.663,2.554C360.888,191.218,363.026,189.939,363.854,186.934Z" transform="translate(-246.916 -134.745)" fill="#ebebeb"/>
          <path id="Path_302378" data-name="Path 302378" d="M379.58,197.529a12.814,12.814,0,0,0,.395-2.608c.321-5.412,5.487-4.555,9.882-5.289,3.434-.574-5.658-9.247,1.264-12.046,1.287-.52,2.683-1.107,3.34-2.329.87-1.615-.01-3.741-1.508-4.8a9.288,9.288,0,0,0-5.255-1.319c-1.13-1.373-.211-3.439.881-4.841s2.432-3,2.018-4.726c-.625-2.61-4.273-2.7-6.909-2.2-.974-1.577-.955-3.55-1.427-5.343s-1.9-3.673-3.738-3.449c-1.734.211-2.793,2.168-4.492,2.569-1.975.464-3.684-1.281-5.232-2.59s-4.258-2.127-5.323-.4c-.639,1.034-.257,2.473-.92,3.489-1.151,1.763-3.878.668-5.571-.581s-4.391-2.382-5.583-.646a7.229,7.229,0,0,0-.656,1.809c-.8,2.312-3.3,3.464-5.247,4.947s-3.488,4.431-1.841,6.24c.813.892,2.243,1.253,2.646,2.391.5,1.42-.948,2.694-2.1,3.673-1.913,1.627-2.259,6.495.27,7.827,1.062.559,2.619.73,2.879,1.9.233,1.048-.83,1.862-1.535,2.671a5.025,5.025,0,0,0,1.538,7.483c.607.29,1.353.529,1.579,1.164a2.379,2.379,0,0,1-.146,1.413,7.468,7.468,0,0,0-.243,2.711,1.237,1.237,0,0,0,.331.85,1.3,1.3,0,0,0,.8.225c3.652.163,5.414-1.13,7.643,2.048a2.6,2.6,0,0,0,.761.807,2.357,2.357,0,0,0,1.007.252c2.511.207,4.152-1.36,6.446-1.652,3.183-.406,3.857,1.235,6.663,2.554C376.614,201.813,378.752,200.534,379.58,197.529Z" transform="translate(-240.79 -130.618)" fill="#ebebeb"/>
          <path id="Path_302379" data-name="Path 302379" d="M393.092,205.76s-9.139,12.92-12.289,17.018-18.908,29.621-21.052,46.5c-.229,1.8-.454,3.353-.675,4.709,6.778,44.732,5.714,126.575,5.475,140.587H343.08c-.2-15.8-2.023-160.228-2.7-164.639-.711-4.666-9.687-22.436-23.553-29.736s-25.847-31.459-25.847-31.459H295.4s8.193,14.811,19.852,23a44.673,44.673,0,0,0,5.246,3.11c-.417-13.347,4.637-26.114,4.637-26.114l2.386,2.207c-3.221,13.191-2.8,21.639-1.823,26.493a47.954,47.954,0,0,1,12.057,8.068c12.093-15.727,18.895-51.694,18.895-51.694l3.1,1.691a183.358,183.358,0,0,1-4,22.059c-2.266,9.31-8.935,26.836-12.038,34.794a82.443,82.443,0,0,1,9.135,17.15,7.04,7.04,0,0,1,1.167-1.4c7.879-7.123,22.69-40.776,22.69-40.776,3.582-7.823-1.891-28.361-1.891-28.361h4.134l1.854,17.963,10.4-11.346,1.89,1.576-11.029,14.182-5.672,17.965L391.2,202.924Z" transform="translate(-260.926 -120.242)" fill="#e6e6e6"/>
        </g>
        <g id="Group_117054" data-name="Group 117054" transform="translate(23.567 155.064)">
          <path id="Path_302380" data-name="Path 302380" d="M86.93,253.663a9.782,9.782,0,0,1-.3-2c-.247-4.152-4.21-3.493-7.583-4.057-2.635-.439,4.341-7.1-.971-9.242a4.658,4.658,0,0,1-2.562-1.787,3.017,3.017,0,0,1,1.156-3.682A7.134,7.134,0,0,1,80.7,231.88c.867-1.053.163-2.639-.677-3.714s-1.865-2.3-1.547-3.625c.479-2,3.278-2.075,5.3-1.686.746-1.21.732-2.724,1.095-4.1s1.456-2.818,2.868-2.647c1.33.163,2.143,1.665,3.446,1.972,1.515.357,2.826-.982,4.014-1.987s3.267-1.633,4.085-.308c.489.792.2,1.9.7,2.676.882,1.353,2.975.514,4.274-.445s3.37-1.827,4.284-.5a5.585,5.585,0,0,1,.5,1.39c.616,1.773,2.532,2.657,4.026,3.795s2.676,3.4,1.413,4.787c-.624.685-1.72.963-2.03,1.836-.388,1.091.727,2.068,1.609,2.818,1.467,1.248,1.734,4.984-.207,6.006-.814.429-2.009.56-2.209,1.459-.178.8.636,1.428,1.178,2.048a3.856,3.856,0,0,1-1.18,5.742c-.467.224-1.039.407-1.212.893a1.829,1.829,0,0,0,.111,1.085,5.737,5.737,0,0,1,.188,2.079.959.959,0,0,1-.253.653.993.993,0,0,1-.616.174c-2.8.124-4.155-.867-5.865,1.57a1.978,1.978,0,0,1-.584.62,1.794,1.794,0,0,1-.773.193c-1.926.158-3.186-1.044-4.945-1.267-2.443-.311-2.961.948-5.112,1.959C89.207,256.949,87.566,255.969,86.93,253.663Z" transform="translate(-75.248 -175.948)" fill="#ebebeb"/>
          <path id="Path_302381" data-name="Path 302381" d="M110.156,251.152a9.766,9.766,0,0,1-.3-2c-.247-4.152-4.212-3.495-7.583-4.057-2.635-.44,4.341-7.1-.971-9.243a4.656,4.656,0,0,1-2.562-1.786,3.016,3.016,0,0,1,1.156-3.684,7.134,7.134,0,0,1,4.032-1.012c.867-1.053.163-2.637-.677-3.714s-1.865-2.3-1.547-3.625c.479-2,3.278-2.075,5.3-1.686.746-1.21.732-2.723,1.095-4.1s1.456-2.819,2.868-2.647c1.33.161,2.143,1.663,3.446,1.97,1.515.357,2.826-.982,4.014-1.987s3.265-1.631,4.084-.308c.491.793.2,1.9.706,2.678.882,1.352,2.975.513,4.274-.446s3.37-1.827,4.284-.5a5.555,5.555,0,0,1,.5,1.388c.614,1.774,2.532,2.658,4.025,3.795s2.676,3.4,1.413,4.788c-.624.685-1.72.962-2.03,1.834-.388,1.091.727,2.069,1.609,2.818,1.467,1.249,1.733,4.984-.207,6.006-.814.429-2.009.561-2.209,1.459-.178.8.636,1.43,1.178,2.048a3.857,3.857,0,0,1-1.18,5.743c-.467.222-1.039.406-1.212.893a1.826,1.826,0,0,0,.111,1.084,5.741,5.741,0,0,1,.188,2.08.958.958,0,0,1-.253.652.993.993,0,0,1-.616.174c-2.8.125-4.155-.867-5.865,1.572a2.008,2.008,0,0,1-.584.62,1.794,1.794,0,0,1-.773.192c-1.927.16-3.186-1.044-4.945-1.267-2.443-.311-2.961.948-5.112,1.959C112.434,254.44,110.792,253.459,110.156,251.152Z" transform="translate(-66.201 -176.925)" fill="#ebebeb"/>
          <path id="Path_302382" data-name="Path 302382" d="M112.394,236.362a9.863,9.863,0,0,1-.3-2c-.247-4.152-4.21-3.495-7.583-4.057-2.635-.441,4.341-7.1-.971-9.243a4.668,4.668,0,0,1-2.562-1.786,3.018,3.018,0,0,1,1.156-3.684,7.136,7.136,0,0,1,4.034-1.012c.866-1.053.161-2.639-.677-3.714s-1.866-2.3-1.548-3.625c.479-2,3.278-2.075,5.3-1.686.748-1.21.732-2.723,1.095-4.1s1.456-2.818,2.868-2.646c1.33.161,2.143,1.663,3.447,1.97,1.513.357,2.825-.982,4.013-1.987s3.267-1.633,4.085-.308c.489.792.2,1.9.706,2.676.882,1.353,2.975.514,4.274-.445s3.368-1.827,4.283-.5a5.53,5.53,0,0,1,.5,1.39c.616,1.773,2.533,2.657,4.025,3.795s2.676,3.4,1.413,4.788c-.624.684-1.72.962-2.03,1.834-.388,1.091.728,2.068,1.609,2.818,1.467,1.248,1.734,4.984-.207,6.006-.814.429-2.009.56-2.209,1.459-.178.8.638,1.428,1.18,2.048a3.859,3.859,0,0,1-1.181,5.743c-.465.222-1.038.406-1.212.892a1.852,1.852,0,0,0,.111,1.085,5.707,5.707,0,0,1,.188,2.079.952.952,0,0,1-.253.653.993.993,0,0,1-.616.174c-2.8.124-4.153-.867-5.864,1.57a1.993,1.993,0,0,1-.584.62,1.805,1.805,0,0,1-.774.193c-1.926.16-3.185-1.044-4.945-1.267-2.443-.311-2.96.948-5.112,1.959C114.671,239.648,113.03,238.668,112.394,236.362Z" transform="translate(-65.329 -182.687)" fill="#ebebeb"/>
          <path id="Path_302383" data-name="Path 302383" d="M127.694,243.728a9.767,9.767,0,0,1-.3-2c-.247-4.152-4.21-3.495-7.583-4.057-2.635-.441,4.341-7.1-.971-9.242a4.67,4.67,0,0,1-2.562-1.787,3.016,3.016,0,0,1,1.156-3.684,7.144,7.144,0,0,1,4.032-1.01c.867-1.053.163-2.639-.677-3.714s-1.865-2.3-1.547-3.627c.479-2,3.278-2.075,5.3-1.686.746-1.21.732-2.723,1.095-4.1s1.456-2.819,2.868-2.647c1.33.163,2.143,1.663,3.446,1.97,1.515.357,2.826-.982,4.014-1.987s3.265-1.631,4.084-.308c.491.793.2,1.9.706,2.678.882,1.352,2.975.513,4.274-.446s3.37-1.827,4.284-.5a5.553,5.553,0,0,1,.5,1.388c.614,1.774,2.532,2.658,4.025,3.795s2.676,3.4,1.413,4.788c-.624.685-1.72.962-2.03,1.836-.388,1.089.727,2.068,1.609,2.817,1.467,1.249,1.734,4.984-.207,6.006-.814.429-2.009.561-2.209,1.459-.178.8.636,1.43,1.178,2.05a3.856,3.856,0,0,1-1.18,5.742c-.467.222-1.039.406-1.212.893a1.824,1.824,0,0,0,.111,1.084,5.741,5.741,0,0,1,.188,2.08.951.951,0,0,1-.253.652.993.993,0,0,1-.616.174c-2.8.125-4.155-.867-5.865,1.572a2.008,2.008,0,0,1-.584.62,1.793,1.793,0,0,1-.773.192c-1.927.16-3.186-1.042-4.945-1.267-2.443-.311-2.961.948-5.112,1.959C129.972,247.016,128.33,246.035,127.694,243.728Z" transform="translate(-59.369 -179.817)" fill="#ebebeb"/>
          <path id="Path_302384" data-name="Path 302384" d="M143.157,240.327a9.783,9.783,0,0,1-.3-2c-.247-4.152-4.21-3.493-7.583-4.057-2.635-.441,4.341-7.1-.971-9.242a4.673,4.673,0,0,1-2.564-1.787,3.019,3.019,0,0,1,1.157-3.684,7.144,7.144,0,0,1,4.032-1.01c.867-1.053.163-2.639-.677-3.714s-1.865-2.3-1.547-3.627c.479-2,3.278-2.075,5.3-1.686.748-1.21.734-2.723,1.1-4.1s1.456-2.819,2.868-2.647c1.33.163,2.143,1.663,3.446,1.972,1.515.356,2.826-.984,4.014-1.988s3.265-1.631,4.084-.307c.491.792.2,1.9.706,2.676.882,1.352,2.975.513,4.274-.446s3.37-1.827,4.284-.5a5.555,5.555,0,0,1,.5,1.388c.616,1.774,2.532,2.658,4.026,3.795s2.676,3.4,1.413,4.788c-.624.685-1.72.963-2.03,1.836-.388,1.089.727,2.068,1.609,2.818,1.467,1.248,1.734,4.983-.207,6.006-.814.428-2.009.56-2.209,1.459-.178.8.636,1.428,1.178,2.048a3.856,3.856,0,0,1-1.18,5.742c-.467.224-1.039.406-1.212.893a1.825,1.825,0,0,0,.111,1.084,5.742,5.742,0,0,1,.188,2.08.958.958,0,0,1-.253.652.993.993,0,0,1-.616.174c-2.8.125-4.155-.867-5.865,1.572a1.993,1.993,0,0,1-.584.62,1.814,1.814,0,0,1-.773.193c-1.926.158-3.186-1.044-4.945-1.269-2.443-.311-2.961.949-5.112,1.961C145.435,243.613,143.794,242.632,143.157,240.327Z" transform="translate(-53.345 -181.143)" fill="#ebebeb"/>
          <path id="Path_302385" data-name="Path 302385" d="M142.663,254.564a7.692,7.692,0,0,1-.238-1.576c-.195-3.27-3.315-2.751-5.971-3.195-2.075-.347,3.418-5.587-.764-7.277a3.688,3.688,0,0,1-2.019-1.408,2.377,2.377,0,0,1,.912-2.9,5.624,5.624,0,0,1,3.175-.8c.682-.83.128-2.077-.532-2.925s-1.469-1.811-1.219-2.854c.378-1.577,2.582-1.634,4.174-1.327a11.473,11.473,0,0,0,.862-3.228c.286-1.082,1.146-2.219,2.258-2.084,1.048.128,1.688,1.31,2.715,1.552,1.192.282,2.225-.773,3.16-1.565s2.572-1.285,3.217-.243c.385.624.154,1.494.554,2.108.7,1.066,2.343.4,3.367-.35s2.653-1.44,3.372-.392a4.41,4.41,0,0,1,.4,1.094c.484,1.4,1.994,2.093,3.17,2.989s2.108,2.676,1.113,3.77c-.492.539-1.355.757-1.6,1.445-.3.859.572,1.629,1.267,2.219,1.156.982,1.366,3.924-.163,4.729-.642.338-1.583.44-1.74,1.149-.14.632.5,1.124.928,1.612a3.037,3.037,0,0,1-.93,4.522c-.367.175-.817.32-.953.7a1.438,1.438,0,0,0,.088.855,4.517,4.517,0,0,1,.147,1.637.752.752,0,0,1-.2.514.784.784,0,0,1-.484.136c-2.207.1-3.271-.682-4.617,1.237a1.6,1.6,0,0,1-.46.489,1.453,1.453,0,0,1-.609.151c-1.517.125-2.51-.823-3.895-1-1.923-.245-2.33.748-4.025,1.544C144.455,257.153,143.163,256.38,142.663,254.564Z" transform="translate(-52.57 -172.397)" fill="#ebebeb"/>
          <path id="Path_302386" data-name="Path 302386" d="M152.023,251.152a9.767,9.767,0,0,1-.3-2c-.247-4.152-4.21-3.495-7.583-4.057-2.635-.44,4.341-7.1-.971-9.243a4.664,4.664,0,0,1-2.564-1.786,3.019,3.019,0,0,1,1.157-3.684,7.134,7.134,0,0,1,4.032-1.012c.867-1.053.163-2.637-.677-3.714s-1.865-2.3-1.547-3.625c.479-2,3.278-2.075,5.3-1.686.748-1.21.734-2.723,1.1-4.1s1.456-2.819,2.868-2.647c1.33.161,2.143,1.663,3.446,1.97,1.515.357,2.826-.982,4.014-1.987s3.265-1.631,4.084-.308c.491.793.2,1.9.706,2.678.882,1.352,2.975.513,4.274-.446s3.37-1.827,4.284-.5a5.554,5.554,0,0,1,.5,1.388c.614,1.774,2.532,2.658,4.025,3.795s2.676,3.4,1.413,4.788c-.624.685-1.72.962-2.03,1.834-.388,1.091.727,2.069,1.609,2.818,1.467,1.249,1.734,4.984-.207,6.006-.814.429-2.009.561-2.209,1.459-.178.8.636,1.43,1.178,2.048a3.857,3.857,0,0,1-1.18,5.743c-.467.222-1.039.406-1.212.893a1.825,1.825,0,0,0,.111,1.084,5.742,5.742,0,0,1,.188,2.08.958.958,0,0,1-.253.652.993.993,0,0,1-.616.174c-2.8.125-4.155-.867-5.865,1.572a2.008,2.008,0,0,1-.584.62,1.793,1.793,0,0,1-.773.192c-1.926.16-3.186-1.044-4.945-1.267-2.443-.311-2.961.948-5.112,1.959C154.3,254.44,152.66,253.459,152.023,251.152Z" transform="translate(-49.892 -176.925)" fill="#ebebeb"/>
          <path id="Path_302387" data-name="Path 302387" d="M127.694,225.536a9.8,9.8,0,0,1-.3-2c-.247-4.152-4.21-3.495-7.583-4.057-2.635-.441,4.341-7.1-.971-9.242a4.67,4.67,0,0,1-2.562-1.787,3.016,3.016,0,0,1,1.156-3.684,7.134,7.134,0,0,1,4.032-1.012c.867-1.053.163-2.637-.677-3.714s-1.865-2.3-1.547-3.625c.479-2,3.278-2.075,5.3-1.686.746-1.21.732-2.723,1.095-4.1s1.456-2.818,2.868-2.646c1.33.163,2.143,1.663,3.446,1.97,1.515.357,2.826-.982,4.014-1.987s3.265-1.631,4.084-.309c.491.792.2,1.9.706,2.678.882,1.352,2.975.513,4.274-.446s3.37-1.827,4.284-.5a5.553,5.553,0,0,1,.5,1.388c.614,1.774,2.532,2.658,4.025,3.795s2.676,3.4,1.413,4.788c-.624.685-1.72.962-2.03,1.834-.388,1.091.727,2.069,1.609,2.818,1.467,1.249,1.734,4.984-.207,6.006-.814.429-2.009.561-2.209,1.46-.178.8.636,1.428,1.178,2.048a3.856,3.856,0,0,1-1.18,5.742c-.467.222-1.039.406-1.212.893a1.824,1.824,0,0,0,.111,1.084,5.741,5.741,0,0,1,.188,2.08.951.951,0,0,1-.253.652.993.993,0,0,1-.616.174c-2.8.125-4.155-.867-5.865,1.572a2.008,2.008,0,0,1-.584.62,1.793,1.793,0,0,1-.773.192c-1.927.16-3.186-1.044-4.945-1.267-2.443-.311-2.961.948-5.112,1.959C129.972,228.822,128.33,227.841,127.694,225.536Z" transform="translate(-59.369 -186.905)" fill="#ebebeb"/>
          <path id="Path_302388" data-name="Path 302388" d="M107.83,226.55a9.764,9.764,0,0,1-.3-2c-.246-4.152-4.21-3.495-7.583-4.057-2.635-.44,4.342-7.1-.97-9.243a4.671,4.671,0,0,1-2.564-1.786,3.019,3.019,0,0,1,1.157-3.684,7.131,7.131,0,0,1,4.032-1.012c.866-1.053.161-2.639-.677-3.714s-1.866-2.3-1.548-3.625c.479-2,3.279-2.075,5.3-1.686.748-1.21.732-2.723,1.095-4.1s1.456-2.818,2.868-2.646c1.33.161,2.143,1.663,3.447,1.97,1.515.357,2.826-.982,4.014-1.987s3.265-1.631,4.084-.308c.491.792.2,1.9.706,2.678.882,1.352,2.975.513,4.274-.446s3.368-1.827,4.283-.5a5.557,5.557,0,0,1,.5,1.388c.614,1.774,2.532,2.657,4.024,3.795s2.678,3.4,1.413,4.788c-.624.685-1.72.962-2.03,1.834-.386,1.091.728,2.068,1.609,2.818,1.469,1.249,1.734,4.984-.206,6.006-.816.429-2.009.561-2.209,1.459-.179.8.636,1.43,1.178,2.048a3.859,3.859,0,0,1-1.181,5.743c-.465.222-1.038.406-1.21.892a1.829,1.829,0,0,0,.111,1.085,5.706,5.706,0,0,1,.186,2.079.946.946,0,0,1-.253.653.987.987,0,0,1-.614.174c-2.8.125-4.155-.867-5.865,1.572a2.008,2.008,0,0,1-.584.62,1.819,1.819,0,0,1-.774.192c-1.926.16-3.185-1.044-4.945-1.267-2.443-.311-2.96.948-5.112,1.959C110.106,229.838,108.465,228.857,107.83,226.55Z" transform="translate(-67.107 -186.509)" fill="#ebebeb"/>
          <path id="Path_302389" data-name="Path 302389" d="M95.764,234.681a9.794,9.794,0,0,1-.3-2c-.246-4.152-4.21-3.495-7.583-4.057-2.635-.441,4.342-7.1-.97-9.242a4.673,4.673,0,0,1-2.564-1.787,3.019,3.019,0,0,1,1.157-3.684,7.142,7.142,0,0,1,4.032-1.01c.867-1.053.161-2.639-.677-3.714s-1.866-2.3-1.548-3.627c.481-2,3.279-2.075,5.3-1.686.748-1.21.732-2.724,1.095-4.1s1.456-2.819,2.868-2.647c1.331.163,2.143,1.663,3.447,1.972,1.515.356,2.826-.984,4.014-1.988s3.265-1.631,4.084-.308c.491.793.2,1.9.706,2.678.882,1.352,2.975.513,4.274-.446s3.37-1.827,4.283-.5a5.558,5.558,0,0,1,.5,1.388c.614,1.774,2.532,2.658,4.025,3.795s2.676,3.4,1.412,4.788c-.624.685-1.719.962-2.03,1.836-.386,1.089.728,2.068,1.609,2.817,1.469,1.249,1.734,4.984-.206,6.006-.816.429-2.009.561-2.209,1.46-.179.8.636,1.428,1.178,2.048a3.856,3.856,0,0,1-1.181,5.742c-.465.222-1.038.406-1.21.893a1.825,1.825,0,0,0,.111,1.084,5.711,5.711,0,0,1,.186,2.08.945.945,0,0,1-.253.652.986.986,0,0,1-.614.174c-2.8.125-4.155-.867-5.865,1.572a1.993,1.993,0,0,1-.584.62,1.82,1.82,0,0,1-.774.193c-1.926.158-3.185-1.044-4.945-1.269-2.443-.311-2.96.948-5.112,1.959C98.04,237.967,96.4,236.986,95.764,234.681Z" transform="translate(-71.807 -183.342)" fill="#ebebeb"/>
          <path id="Path_302390" data-name="Path 302390" d="M96.147,241s7.012,9.913,9.429,13.056,14.507,22.729,16.152,35.682c.176,1.381.349,2.572.518,3.613-5.2,34.322-4.384,97.117-4.2,107.868h16.473c.151-12.122,1.552-122.937,2.068-126.322.546-3.579,7.433-17.214,18.072-22.815s19.832-24.138,19.832-24.138H171.1s-6.286,11.364-15.232,17.65a34.271,34.271,0,0,1-4.026,2.386c.321-10.24-3.557-20.036-3.557-20.036l-1.83,1.692c2.471,10.121,2.145,16.6,1.4,20.328a36.76,36.76,0,0,0-9.25,6.19c-9.279-12.067-14.5-39.663-14.5-39.663l-2.376,1.3a140.636,140.636,0,0,0,3.068,16.925c1.74,7.144,6.856,20.59,9.236,26.7a63.214,63.214,0,0,0-7.009,13.158,5.328,5.328,0,0,0-.9-1.073c-6.045-5.465-17.408-31.287-17.408-31.287-2.749-6,1.451-21.76,1.451-21.76H107l-1.422,13.782-7.979-8.7-1.451,1.209,8.462,10.88,4.352,13.786L97.6,238.82Z" transform="translate(-67.107 -175.381)" fill="#e6e6e6"/>
        </g>
        <path id="Rectangle_17796" data-name="Rectangle 17796" d="M0,0H532.784a0,0,0,0,1,0,0V19.649a7.915,7.915,0,0,1-7.915,7.915H7.915A7.915,7.915,0,0,1,0,19.649V0A0,0,0,0,1,0,0Z" transform="translate(532.784 427.876) rotate(180)" fill="#e0e0e0"/>
      </g>
    </g>
    <g id="Shadow" transform="translate(77.969 541.24)">
      <ellipse id="_Path_" data-name="&lt;Path&gt;" cx="269.418" cy="15.734" rx="269.418" ry="15.734" fill="#f5f5f5"/>
    </g>
    <g id="Plant" transform="translate(109.119 361.935)">
      <g id="Group_117060" data-name="Group 117060">
        <path id="Path_302393" data-name="Path 302393" d="M112.415,398.795s-1.929-14.139-10.97-15.685-6.314-8.383-8.669-11.029-8.507,5.161-3.238,12.724.962,5.186,3.238,12.217S113.242,410.514,112.415,398.795Z" transform="translate(-75.048 -238.605)" fill="#263238"/>
        <path id="Path_302394" data-name="Path 302394" d="M112.415,398.795s-1.929-14.139-10.97-15.685-6.314-8.383-8.669-11.029-8.507,5.161-3.238,12.724.962,5.186,3.238,12.217S113.242,410.514,112.415,398.795Z" transform="translate(-75.048 -238.605)" fill="#fff" opacity="0.2" style="mix-blend-mode: normal;isolation: isolate"/>
        <path id="Path_302395" data-name="Path 302395" d="M110.292,442.352s-6.93-14.4-3.292-37.907,17.3-32.625,5.423-58.489-25.447-44.3-18.659-62.655" transform="translate(-73.301 -272.983)" fill="none" stroke="#263238" stroke-linecap="round" stroke-linejoin="round" stroke-width="0.902"/>
        <path id="Path_302396" data-name="Path 302396" d="M101.946,402.8s-5.844-8.807,2.59-13.334,10.126-.882,15.345-4.138,9.172-11.146,10.062-6.1-5.137,7.927-3.006,10.235S112.751,406.768,101.946,402.8Z" transform="translate(-70.175 -236.255)" fill="#263238"/>
        <g id="Group_117058" data-name="Group 117058">
          <path id="Path_302397" data-name="Path 302397" d="M91.822,293.55s-5.694-17.305,7.255-17.668S97.752,291.7,91.822,293.55Z" transform="translate(-73.836 -275.876)" fill="#263238"/>
          <path id="Path_302398" data-name="Path 302398" d="M99.566,301.779s3.859-15.735,13.051-12.417S108.727,302.069,99.566,301.779Z" transform="translate(-70.334 -270.801)" fill="#263238"/>
          <path id="Path_302399" data-name="Path 302399" d="M92.169,302.741s1.385-12.557-8.368-12.806S78.39,300.714,92.169,302.741Z" transform="translate(-78.529 -270.401)" fill="#263238"/>
          <path id="Path_302400" data-name="Path 302400" d="M98.261,319.323s-13.09-11.669-17.8-2.986S90.338,326.83,98.261,319.323Z" transform="translate(-78.131 -261.366)" fill="#263238"/>
          <path id="Path_302401" data-name="Path 302401" d="M109.68,320.155s2.461-19.38,13.034-13.3S118.891,322.092,109.68,320.155Z" transform="translate(-66.394 -264.268)" fill="#263238"/>
          <path id="Path_302402" data-name="Path 302402" d="M116.963,340.982s-7.8-19.581,6.7-17.375S127.2,336.23,116.963,340.982Z" transform="translate(-64.374 -257.35)" fill="#263238"/>
          <path id="Path_302403" data-name="Path 302403" d="M107.509,344.1s-12.25-14.43-21.61-9.855S84.189,353.173,107.509,344.1Z" transform="translate(-77.174 -253.485)" fill="#263238"/>
          <path id="Path_302404" data-name="Path 302404" d="M108.36,368.858s10.435-23.172,19.713-15.363S122.155,372.98,108.36,368.858Z" transform="translate(-66.908 -246.266)" fill="#263238"/>
          <path id="Path_302405" data-name="Path 302405" d="M101.3,367.781s2.758-17.975-7.573-16.53S86.108,363.693,101.3,367.781Z" transform="translate(-75.013 -246.546)" fill="#263238"/>
          <g id="Group_117057" data-name="Group 117057" opacity="0.2" style="mix-blend-mode: normal;isolation: isolate">
            <path id="Path_302406" data-name="Path 302406" d="M91.822,293.55s-5.694-17.305,7.255-17.668S97.752,291.7,91.822,293.55Z" transform="translate(-73.836 -275.876)" fill="#fff"/>
            <path id="Path_302407" data-name="Path 302407" d="M99.566,301.779s3.859-15.735,13.051-12.417S108.727,302.069,99.566,301.779Z" transform="translate(-70.334 -270.801)" fill="#fff"/>
            <path id="Path_302408" data-name="Path 302408" d="M92.169,302.741s1.385-12.557-8.368-12.806S78.39,300.714,92.169,302.741Z" transform="translate(-78.529 -270.401)" fill="#fff"/>
            <path id="Path_302409" data-name="Path 302409" d="M98.261,319.323s-13.09-11.669-17.8-2.986S90.338,326.83,98.261,319.323Z" transform="translate(-78.131 -261.366)" fill="#fff"/>
            <path id="Path_302410" data-name="Path 302410" d="M109.68,320.155s2.461-19.38,13.034-13.3S118.891,322.092,109.68,320.155Z" transform="translate(-66.394 -264.268)" fill="#fff"/>
            <path id="Path_302411" data-name="Path 302411" d="M116.963,340.982s-7.8-19.581,6.7-17.375S127.2,336.23,116.963,340.982Z" transform="translate(-64.374 -257.35)" fill="#fff"/>
            <path id="Path_302412" data-name="Path 302412" d="M107.509,344.1s-12.25-14.43-21.61-9.855S84.189,353.173,107.509,344.1Z" transform="translate(-77.174 -253.485)" fill="#fff"/>
            <path id="Path_302413" data-name="Path 302413" d="M108.36,368.858s10.435-23.172,19.713-15.363S122.155,372.98,108.36,368.858Z" transform="translate(-66.908 -246.266)" fill="#fff"/>
            <path id="Path_302414" data-name="Path 302414" d="M101.3,367.781s2.758-17.975-7.573-16.53S86.108,363.693,101.3,367.781Z" transform="translate(-75.013 -246.546)" fill="#fff"/>
          </g>
        </g>
        <path id="Path_302415" data-name="Path 302415" d="M86.009,296.188s5.571,8.276,13.192,12.543c0,0,5.041-9.727,8.974-12.085" transform="translate(-75.615 -267.963)" fill="none" stroke="#263238" stroke-linecap="round" stroke-linejoin="round" stroke-width="0.902"/>
        <path id="Path_302416" data-name="Path 302416" d="M85.782,318.808s14.165-.457,25.377,8.019c0,0,6.225-10.552,14.394-15.361" transform="translate(-75.703 -262.012)" fill="none" stroke="#263238" stroke-linecap="round" stroke-linejoin="round" stroke-width="0.902"/>
        <path id="Path_302417" data-name="Path 302417" d="M131.154,329.39s-6.081,16-13.845,22.23c0,0-16.091-9.328-27.908-9.56" transform="translate(-74.293 -255.029)" fill="none" stroke="#263238" stroke-linecap="round" stroke-linejoin="round" stroke-width="0.902"/>
        <path id="Path_302418" data-name="Path 302418" d="M92.856,355.424s7.95,15.521,13.882,18.912c0,0,5.543-7.818,17.535-11.418" transform="translate(-72.947 -244.888)" fill="none" stroke="#263238" stroke-linecap="round" stroke-linejoin="round" stroke-width="0.902"/>
        <path id="Path_302419" data-name="Path 302419" d="M108,398.167s-5.012-7.976-10.672-9.111-8.1-7.655-10.187-3.734S90.814,402.241,108,398.167Z" transform="translate(-75.332 -233.725)" fill="#263238"/>
        <g id="Group_117059" data-name="Group 117059" transform="translate(0.897 161.242)">
          <path id="Path_302420" data-name="Path 302420" d="M84.35,426.211h54.717l3.662-33.751H80.688Z" transform="translate(-78.584 -391.703)" fill="#407bff"/>
          <path id="Path_302421" data-name="Path 302421" d="M80,399.067h64.6l.826-7.151H79.174Z" transform="translate(-79.174 -391.915)" fill="#407bff"/>
          <path id="Path_302422" data-name="Path 302422" d="M80,399.067h64.6l.826-7.151H79.174Z" transform="translate(-79.174 -391.915)" fill="#fff" opacity="0.3"/>
        </g>
      </g>
    </g>
    <g id="Lamp" transform="translate(554.407 177.997)">
      <g id="Group_117061" data-name="Group 117061">
        <path id="Path_302423" data-name="Path 302423" d="M438.232,154.064l-4.752,45.646H409.69l-4.752-45.646Z" transform="translate(-396.666 -139.389)" fill="#263238"/>
        <path id="Path_302424" data-name="Path 302424" d="M438.232,154.064l-4.752,45.646H409.69l-4.752-45.646Z" transform="translate(-396.666 -139.389)" fill="#fff" opacity="0.3"/>
        <rect id="Rectangle_17797" data-name="Rectangle 17797" width="8.853" height="329.183" transform="translate(20.493 50.504)" fill="#263238"/>
        <rect id="Rectangle_17798" data-name="Rectangle 17798" width="8.853" height="329.183" transform="translate(20.493 50.504)" fill="#fff" opacity="0.3"/>
        <path id="Path_302425" data-name="Path 302425" d="M430.111,196.147H411.329l-4.169-40.085h27.119Z" transform="translate(-395.8 -138.611)" fill="#407bff"/>
        <path id="Path_302426" data-name="Path 302426" d="M430.111,196.147H411.329l-4.169-40.085h27.119Z" transform="translate(-395.8 -138.611)" fill="#fff" opacity="0.4" style="mix-blend-mode: normal;isolation: isolate"/>
        <path id="Path_302427" data-name="Path 302427" d="M415.89,197.162h-1.283l-1.39-42.1H414.5Z" transform="translate(-393.441 -139)" fill="#263238"/>
        <path id="Path_302428" data-name="Path 302428" d="M415.89,197.162h-1.283l-1.39-42.1H414.5Z" transform="translate(-393.441 -139)" fill="#fff" opacity="0.3"/>
        <path id="Path_302429" data-name="Path 302429" d="M434.924,154.064l-4.752,45.646H415.221l-1.792-45.646Z" transform="translate(-393.359 -139.389)" fill="#fff" opacity="0.2"/>
        <path id="Path_302430" data-name="Path 302430" d="M423.905,143.5s-14.109,13.926-24.92,13.926l3.353,2.2h43.133l3.354-2.2C438.014,157.429,423.905,143.5,423.905,143.5Z" transform="translate(-398.985 -143.503)" fill="#263238"/>
        <path id="Path_302431" data-name="Path 302431" d="M448.817,157.427l-3.349,2.2H402.337l-3.349-2.2c10.811,0,24.915-13.923,24.915-13.923S438.006,157.427,448.817,157.427Z" transform="translate(-398.984 -143.503)" fill="#fff" opacity="0.4"/>
        <path id="Path_302432" data-name="Path 302432" d="M444.045,157.427l-3.349,2.2H412.683c-.848-1.376-1.445-2.376-1.445-2.376,7.517-3.488,7.893-13.743,7.893-13.743S433.234,157.427,444.045,157.427Z" transform="translate(-394.212 -143.503)" fill="#fff" opacity="0.2"/>
        <path id="Rectangle_17799" data-name="Rectangle 17799" d="M2.473,0H19.595a2.473,2.473,0,0,1,2.473,2.473V6.091a0,0,0,0,1,0,0H0a0,0,0,0,1,0,0V2.473A2.473,2.473,0,0,1,2.473,0Z" transform="translate(13.886 373.597)" fill="#263238"/>
        <path id="Rectangle_17800" data-name="Rectangle 17800" d="M2.473,0H19.595a2.473,2.473,0,0,1,2.473,2.473V6.091a0,0,0,0,1,0,0H0a0,0,0,0,1,0,0V2.473A2.473,2.473,0,0,1,2.473,0Z" transform="translate(13.886 373.597)" fill="#fff" opacity="0.5"/>
      </g>
    </g>
    <g id="Interface" transform="translate(141.182 141.926)">
      <g id="Group_117066" data-name="Group 117066">
        <rect id="Rectangle_17801" data-name="Rectangle 17801" width="203.208" height="275.93" rx="7.83" fill="#407bff"/>
        <rect id="Rectangle_17802" data-name="Rectangle 17802" width="203.208" height="275.93" rx="7.83" fill="#fff" opacity="0.6" style="mix-blend-mode: normal;isolation: isolate"/>
        <g id="Group_117063" data-name="Group 117063" transform="translate(74.313 46.711)">
          <path id="Path_302433" data-name="Path 302433" d="M209.664,178.437a27.291,27.291,0,1,1-27.291-27.277A27.265,27.265,0,0,1,209.664,178.437Z" transform="translate(-155.083 -151.16)" fill="#407bff"/>
          <path id="Path_302434" data-name="Path 302434" d="M209.664,178.437a27.291,27.291,0,1,1-27.291-27.277A27.265,27.265,0,0,1,209.664,178.437Z" transform="translate(-155.083 -151.16)" fill="#fff" opacity="0.7"/>
          <g id="Group_117062" data-name="Group 117062" transform="translate(9.977 14.94)">
            <circle id="Ellipse_315" data-name="Ellipse 315" cx="9.773" cy="9.773" r="9.773" transform="translate(7.542)" fill="#fff"/>
            <path id="Path_302435" data-name="Path 302435" d="M196.9,190.111a27.3,27.3,0,0,1-34.641,0c2.557-7.49,7.823-13.02,14.146-14.423a14.62,14.62,0,0,1,6.336,0C189.081,177.091,194.334,182.621,196.9,190.111Z" transform="translate(-162.263 -156.681)" fill="#fff"/>
          </g>
        </g>
        <text id="Sign_up_now" data-name="Sign up now" transform="translate(84.118 179.464)" font-size="4" font-family="Montserrat-Regular, Montserrat" opacity="0.5"><tspan x="0" y="0">Sign up now</tspan></text>
        <rect id="Rectangle_17803" data-name="Rectangle 17803" width="132.663" height="22.716" rx="8.174" transform="translate(35.272 189.031)" fill="#407bff"/>
        <text id="Forgot_Password_" data-name="Forgot Password?" transform="translate(76.603 225.378)" font-size="4" font-family="Montserrat-Regular, Montserrat" opacity="0.5"><tspan x="0" y="0">Forgot Password?</tspan></text>
        <text id="Login" transform="translate(99.319 201.802)" fill="#fff" font-size="9" font-family="Montserrat-Medium, Montserrat" font-weight="500"><tspan x="-12" y="0">Login</tspan></text>
        <rect id="Rectangle_17804" data-name="Rectangle 17804" width="132.663" height="22.716" rx="8.174" transform="translate(35.272 112.323)" fill="#fff"/>
        <rect id="Rectangle_17805" data-name="Rectangle 17805" width="132.663" height="22.716" rx="8.174" transform="translate(35.272 144.537)" fill="#fff"/>
        <text id="Name_mail.com" data-name="Name@mail.com" transform="translate(49.828 124.776)" font-size="6" font-family="Montserrat-Regular, Montserrat" opacity="0.5"><tspan x="0" y="0">Name@mail.com</tspan></text>
        <text id="_" data-name="*******" transform="translate(49.828 161.347)" font-size="9" font-family="Montserrat-Regular, Montserrat" opacity="0.5"><tspan x="0" y="0">*******</tspan></text>
        <path id="Path_302436" data-name="Path 302436" d="M205.658,202.713v10.669h15.115V202.713Zm12.649,1.163-5.091,3.468-5.09-3.468Zm-11.486,8.343v-7.825l6.395,4.356,6.4-4.356v7.825Z" transform="translate(-61.069 -84.367)" opacity="0.2"/>
        <g id="Group_117065" data-name="Group 117065" transform="translate(145.759 149.873)" opacity="0.2">
          <g id="Group_117064" data-name="Group 117064">
            <path id="Path_302437" data-name="Path 302437" d="M216.459,229.657v-1.3A2.959,2.959,0,0,0,213.5,225.4h-1.61a2.96,2.96,0,0,0-2.958,2.957v1.3H206.5v8.867h12.777v-8.867Zm-6.363-1.3a1.8,1.8,0,0,1,1.8-1.8h1.61a1.8,1.8,0,0,1,1.8,1.8v1.3h-5.2Zm8.018,9H207.662v-6.542h10.452Z" transform="translate(-206.5 -225.402)"/>
            <path id="Path_302438" data-name="Path 302438" d="M210.947,232.251V233.3h.671v-1.053a.652.652,0,0,0,.325-.556.661.661,0,1,0-1.321,0A.649.649,0,0,0,210.947,232.251Z" transform="translate(-204.894 -223.208)"/>
          </g>
        </g>
      </g>
    </g>
    <g id="Speech_bubble" data-name="Speech bubble" transform="translate(436.434 180.983)">
      <g id="Group_117071" data-name="Group 117071">
        <g id="Group_117067" data-name="Group 117067">
          <path id="Path_302439" data-name="Path 302439" d="M366.295,145.652H326.376a12.293,12.293,0,0,0-12.292,12.292v34.741a12.292,12.292,0,0,0,12.292,12.292h15.788l4.171,10.969,4.171-10.969h15.788a12.291,12.291,0,0,0,12.292-12.292V157.944A12.292,12.292,0,0,0,366.295,145.652Z" transform="translate(-314.084 -145.652)" fill="#407bff"/>
          <path id="Path_302440" data-name="Path 302440" d="M366.295,145.652H326.376a12.293,12.293,0,0,0-12.292,12.292v34.741a12.292,12.292,0,0,0,12.292,12.292h15.788l4.171,10.969,4.171-10.969h15.788a12.291,12.291,0,0,0,12.292-12.292V157.944A12.292,12.292,0,0,0,366.295,145.652Z" transform="translate(-314.084 -145.652)" fill="#fff" opacity="0.7"/>
        </g>
        <g id="Group_117070" data-name="Group 117070" transform="translate(4.232 1.494)">
          <g id="Group_117068" data-name="Group 117068" transform="translate(0 0)" style="mix-blend-mode: normal;isolation: isolate">
            <circle id="Ellipse_316" data-name="Ellipse 316" cx="19.812" cy="19.812" r="19.812" transform="translate(0 28.019) rotate(-45)" fill="#407bff"/>
          </g>
          <g id="Group_117069" data-name="Group 117069" transform="translate(16.345 19.169)">
            <path id="Path_302441" data-name="Path 302441" d="M338.488,178.222a1.826,1.826,0,0,1-1.39-.642l-7.773-9.16a1.82,1.82,0,0,1,2.776-2.355l6.386,7.523,10.544-12.423a1.82,1.82,0,1,1,2.776,2.355L339.876,177.58A1.823,1.823,0,0,1,338.488,178.222Z" transform="translate(-328.893 -160.522)" fill="#fff"/>
          </g>
        </g>
      </g>
    </g>
    <g id="Character" transform="translate(245.47 261.171)">
      <g id="Group_117072" data-name="Group 117072" transform="translate(0 91.454)">
        <path id="Path_302442" data-name="Path 302442" d="M395.946,446.43h9.176L386.364,340.555h-9.176Z" transform="translate(-98.539 -241.371)" fill="#263238"/>
        <path id="Path_302443" data-name="Path 302443" d="M250.791,446.43h9.176L241.209,340.555h-9.176Z" transform="translate(-155.083 -241.371)" fill="#263238"/>
        <path id="Path_302444" data-name="Path 302444" d="M395.946,446.43h9.176L386.364,340.555h-9.176Z" transform="translate(-98.539 -241.371)" fill="#fff" opacity="0.3"/>
        <path id="Path_302445" data-name="Path 302445" d="M250.791,446.43h9.176L241.209,340.555h-9.176Z" transform="translate(-155.083 -241.371)" fill="#fff" opacity="0.3"/>
        <rect id="Rectangle_17806" data-name="Rectangle 17806" width="276.732" height="9.293" transform="translate(292.616 161.415) rotate(180)" fill="#263238"/>
        <rect id="Rectangle_17807" data-name="Rectangle 17807" width="276.732" height="9.293" transform="translate(292.616 161.415) rotate(180)" fill="#fff" opacity="0.5"/>
        <path id="Path_302446" data-name="Path 302446" d="M332.366,446.43H323.19l18.758-105.875h9.176Z" transform="translate(-119.574 -241.371)" fill="#263238"/>
        <path id="Path_302447" data-name="Path 302447" d="M187.211,446.43h-9.176l18.758-105.875h9.176Z" transform="translate(-176.118 -241.371)" fill="#263238"/>
        <path id="Path_302448" data-name="Path 302448" d="M332.366,446.43H323.19l18.758-105.875h9.176Z" transform="translate(-119.574 -241.371)" fill="#fff" opacity="0.3"/>
        <path id="Path_302449" data-name="Path 302449" d="M187.211,446.43h-9.176l18.758-105.875h9.176Z" transform="translate(-176.118 -241.371)" fill="#fff" opacity="0.3"/>
        <path id="Path_302450" data-name="Path 302450" d="M244.521,361.415h9.131l15.284-84.97h-9.131Z" transform="translate(-150.219 -266.344)" fill="#263238"/>
        <path id="Path_302451" data-name="Path 302451" d="M244.521,361.415h9.131l15.284-84.97h-9.131Z" transform="translate(-150.219 -266.344)" fill="#fff" opacity="0.3"/>
        <path id="Path_302452" data-name="Path 302452" d="M375.006,361.415h9.131l15.284-84.97H390.29Z" transform="translate(-99.389 -266.344)" fill="#263238"/>
        <path id="Path_302453" data-name="Path 302453" d="M309.763,361.415h9.131l15.284-84.97h-9.131Z" transform="translate(-124.804 -266.344)" fill="#263238"/>
        <path id="Path_302454" data-name="Path 302454" d="M375.006,361.415h9.131l15.284-84.97H390.29Z" transform="translate(-99.389 -266.344)" fill="#fff" opacity="0.3"/>
        <path id="Path_302455" data-name="Path 302455" d="M309.763,361.415h9.131l15.284-84.97h-9.131Z" transform="translate(-124.804 -266.344)" fill="#fff" opacity="0.3"/>
        <path id="Path_302456" data-name="Path 302456" d="M233.171,285.079H472.965l2.861-15.9H236.032Z" transform="translate(-154.64 -269.176)" fill="#263238"/>
        <path id="Path_302457" data-name="Path 302457" d="M229.447,305.781H469.241l2.861-15.9H232.308Z" transform="translate(-156.091 -261.111)" fill="#263238"/>
        <path id="Path_302458" data-name="Path 302458" d="M225.723,326.483H465.518l2.861-15.9H228.584Z" transform="translate(-157.541 -253.047)" fill="#263238"/>
        <rect id="Rectangle_17808" data-name="Rectangle 17808" width="305.601" height="11" transform="translate(305.601 103.566) rotate(180)" fill="#263238"/>
        <path id="Path_302459" data-name="Path 302459" d="M233.171,285.079H472.965l2.861-15.9H236.032Z" transform="translate(-154.64 -269.176)" fill="#fff" opacity="0.5"/>
        <path id="Path_302460" data-name="Path 302460" d="M229.447,305.781H469.241l2.861-15.9H232.308Z" transform="translate(-156.091 -261.111)" fill="#fff" opacity="0.5"/>
        <path id="Path_302461" data-name="Path 302461" d="M225.723,326.483H465.518l2.861-15.9H228.584Z" transform="translate(-157.541 -253.047)" fill="#fff" opacity="0.5"/>
        <rect id="Rectangle_17809" data-name="Rectangle 17809" width="305.601" height="11" transform="translate(305.601 103.566) rotate(180)" fill="#fff" opacity="0.5"/>
        <rect id="Rectangle_17810" data-name="Rectangle 17810" width="230.568" height="11" transform="translate(230.568 103.566) rotate(180)" fill="#fff" opacity="0.2"/>
      </g>
      <g id="Group_117084" data-name="Group 117084" transform="translate(50.131)">
        <path id="Path_302462" data-name="Path 302462" d="M336.11,250.819s-20.772,22.523-26.45,21.66c-7.609-1.158-24.188-20.5-24.188-20.5" transform="translate(-184.398 -184.872)" fill="none" stroke="#e9b376" stroke-linecap="round" stroke-linejoin="round" stroke-width="9.989"/>
        <path id="Path_302463" data-name="Path 302463" d="M335.449,245.249v19.912s-4.212,3.5-9.379,7.365c-2.586,1.931-5.407,3.946-8.045,5.655-4.017,2.612-7.63,4.53-9.464,4.419-5.473-.333-17.354-8.824-17.354-8.824l7.809-13.006s8.976,5.489,9.545,5.864S327.958,245.374,335.449,245.249Z" transform="translate(-182.164 -187.042)" fill="#407bff"/>
        <path id="Path_302464" data-name="Path 302464" d="M318.551,267.727c-2.586,1.931-5.407,3.946-8.045,5.655.625-11.422,6-15.813,6-15.813A19.839,19.839,0,0,1,318.551,267.727Z" transform="translate(-174.646 -182.243)" opacity="0.2"/>
        <path id="Path_302465" data-name="Path 302465" d="M330.347,208.814c-9.588,7.825-8.462,30.334,2.318,45.106,0,0,23.011,1.929,35.789-3.793s-1.346-42.17-14.856-45.039A32.213,32.213,0,0,0,330.347,208.814Z" transform="translate(-169.462 -202.968)" fill="#263238"/>
        <path id="Path_302466" data-name="Path 302466" d="M329.78,232.6c-3.511-6.065-7-22.413,7.612-27.466,18.245-6.306,26.422,5.327,28,16.858s-4.92,20.25-16.979,19.383S332.21,236.8,329.78,232.6Z" transform="translate(-168.338 -203.36)" fill="#263238"/>
        <path id="Path_302467" data-name="Path 302467" d="M314.977,262.679c-1.784,8.429,1.342,28.3,1.856,43.277l42.962,4.952c.011-4.7.881-11.512,3.678-22.333,1.612-6.339,3.907-14.057,7.062-23.532.464-1.409.946-2.844,1.455-4.33a10.691,10.691,0,0,0-8.387-14.357c-1.8-.286-3.717-.539-5.676-.729a145.1,145.1,0,0,0-20.776-1.1c-2.266.075-4.624.245-6.885.434C322.14,245.642,316.643,254.779,314.977,262.679Z" transform="translate(-173.116 -187.348)" fill="#263238"/>
        <g id="Group_117073" data-name="Group 117073" transform="translate(161.726 34.807)">
          <path id="Path_302468" data-name="Path 302468" d="M351.985,228.409c-2.164,6.586-5.036,18.714-.928,23.406,0,0-6.281-1.287-20.164,6.31-3.595-5.789-.609-7.413-.609-7.413,7.68-1.377,8.194-6.895,7.559-12.136Z" transform="translate(-329.121 -228.409)" fill="#ebb376"/>
          <path id="Path_302469" data-name="Path 302469" d="M343.773,231.394l-8.371,6.013a20.573,20.573,0,0,1,.17,3.707c2.9-.26,7.21-3.164,7.894-6.118A10.018,10.018,0,0,0,343.773,231.394Z" transform="translate(-326.674 -227.246)" opacity="0.2"/>
        </g>
        <g id="Group_117074" data-name="Group 117074" transform="translate(156 3.559)">
          <path id="Path_302470" data-name="Path 302470" d="M356.338,221.544c.149,11,.445,15.646-4.662,21.678-7.681,9.074-21.218,6.85-24.649-3.878-3.088-9.659-2.811-26.016,7.576-31.176A15,15,0,0,1,356.338,221.544Z" transform="translate(-324.88 -205.68)" fill="#ffb573"/>
          <path id="Path_302471" data-name="Path 302471" d="M341.139,210.748c-3.049,3.82,3.9,15.855,9.364,17.906C361.137,225.147,350.237,199.346,341.139,210.748Z" transform="translate(-319.003 -205.166)" fill="#263238"/>
          <path id="Path_302472" data-name="Path 302472" d="M333.9,206.381c-4.042,1.779-7.838,9.378-8.332,12.218,6.01.45,21.5-6.5,21.5-6.5s10.916,2.011,5.044-2.922S333.9,206.381,333.9,206.381Z" transform="translate(-324.78 -205.921)" fill="#263238"/>
          <path id="Path_302473" data-name="Path 302473" d="M335.074,220.989c.067.891-.352,1.649-.934,1.692s-1.109-.643-1.176-1.534.352-1.649.934-1.692S335.008,220.1,335.074,220.989Z" transform="translate(-321.9 -200.65)" fill="#263238"/>
          <path id="Path_302474" data-name="Path 302474" d="M327.825,221.532c.067.892-.352,1.649-.934,1.692s-1.109-.643-1.176-1.534.352-1.649.934-1.692S327.759,220.641,327.825,221.532Z" transform="translate(-324.724 -200.439)" fill="#263238"/>
          <path id="Path_302475" data-name="Path 302475" d="M327.187,220.147,325,219.69S326.224,221.28,327.187,220.147Z" transform="translate(-325 -200.558)" fill="#263238"/>
          <path id="Path_302476" data-name="Path 302476" d="M331.077,221.9a23.873,23.873,0,0,1-2.75,5.926,3.842,3.842,0,0,0,3.221.358Z" transform="translate(-323.704 -199.696)" fill="#ed893e"/>
          <path id="Path_302477" data-name="Path 302477" d="M334.776,229.7a8.539,8.539,0,0,1-1.3.2.263.263,0,0,1-.282-.242.27.27,0,0,1,.242-.282,7.044,7.044,0,0,0,5.548-3.19.263.263,0,1,1,.461.253A7.356,7.356,0,0,1,334.776,229.7Z" transform="translate(-321.81 -198.082)" fill="#263238"/>
          <path id="Path_302478" data-name="Path 302478" d="M352.563,225.76a8.037,8.037,0,0,1-3.842,4.787c-2.48,1.338-4.338-.731-4.167-3.395.154-2.4,1.631-5.985,4.369-6.225C351.621,220.691,353.269,223.251,352.563,225.76Z" transform="translate(-317.387 -200.082)" fill="#ffb573"/>
          <path id="Path_302479" data-name="Path 302479" d="M339.563,219.69a.523.523,0,0,1-.567-.239c-1.255-2.08-4.371-2.326-4.4-2.329a.525.525,0,1,1,.075-1.046c.15.011,3.693.293,5.225,2.832a.525.525,0,0,1-.178.721A.5.5,0,0,1,339.563,219.69Z" transform="translate(-321.453 -201.966)" fill="#263238"/>
          <path id="Path_302480" data-name="Path 302480" d="M325.737,218.411a.525.525,0,0,1-.482-.891,5.215,5.215,0,0,1,4.562-1.463.525.525,0,0,1-.236,1.023h0a4.161,4.161,0,0,0-3.6,1.2A.524.524,0,0,1,325.737,218.411Z" transform="translate(-324.964 -202.003)" fill="#263238"/>
          <path id="Path_302481" data-name="Path 302481" d="M334.436,219.6l-2.187-.456S333.473,220.737,334.436,219.6Z" transform="translate(-322.176 -200.769)" fill="#263238"/>
        </g>
        <path id="Path_302482" data-name="Path 302482" d="M305.774,250.82l1.041,3.256a3.975,3.975,0,0,0,2.573,2.576l5.721,1.831a7.417,7.417,0,0,0,6.709-1.127l1.191-.892c-1.358-5.518-6.889-10.481-6.889-10.481l-1.42-1.59a3.308,3.308,0,0,0-4.691-.374l-3.186,2.774A3.81,3.81,0,0,0,305.774,250.82Z" transform="translate(-176.563 -187.835)" fill="#ebb376"/>
        <path id="Path_302483" data-name="Path 302483" d="M278.088,252.966l1.041,3.256A3.981,3.981,0,0,0,281.7,258.8l5.721,1.831a7.413,7.413,0,0,0,6.709-1.127l1.189-.892c-1.358-5.518-6.889-10.481-6.889-10.481l-1.419-1.59a3.308,3.308,0,0,0-4.691-.374l-3.188,2.774A3.81,3.81,0,0,0,278.088,252.966Z" transform="translate(-187.348 -186.999)" fill="#ebb376"/>
        <path id="Path_302484" data-name="Path 302484" d="M337.956,267.573c2.762,8.141,9.816,14.215,16.569,17.807,1.612-6.339,3.907-14.057,7.062-23.532-4.235-5.926-10.171-10.135-17.721-9C343.866,252.851,335.158,259.327,337.956,267.573Z" transform="translate(-164.169 -184.153)" opacity="0.2"/>
        <g id="Group_117075" data-name="Group 117075" transform="translate(21.312 122.181)">
          <path id="Path_302485" data-name="Path 302485" d="M228.07,414.078l7.249,2.928s61.637-92.969,67.34-89.476c20.663,12.657,63.139,35.278,83.243,21.58s8.169-49.815,8.169-49.815-39.093-13.722-43.923-5.237a64.719,64.719,0,0,0-3.322,7.816c-1.01,2.687-1.788,4.959-1.788,4.959a.044.044,0,0,1-.024-.019c-1.183-.561-39.5-19-57.553-11.4C269.128,303.138,228.07,414.078,228.07,414.078Z" transform="translate(-228.07 -291.288)" fill="#ebb376"/>
        </g>
        <path id="Path_302486" data-name="Path 302486" d="M346.2,345.47s-19.387,1.267-45.938-7.755c0,0-6.546,74.036-10.94,114.215l-8.906-1.253S265.289,341,268.282,327.624s19.177-14.25,19.177-14.25S318.443,336.11,346.2,345.47Z" transform="translate(-191.247 -160.504)" fill="#ebb376"/>
        <path id="Path_302487" data-name="Path 302487" d="M335.118,340.769c-.432-.086-19.387.707-38.774-4.792l2.522-10.534C308.64,331.877,322.246,335.8,335.118,340.769Z" transform="translate(-180.162 -155.803)" fill="#407bff"/>
        <path id="Path_302488" data-name="Path 302488" d="M335.118,340.769c-.432-.086-19.387.707-38.774-4.792l2.522-10.534C308.64,331.877,322.246,335.8,335.118,340.769Z" transform="translate(-180.162 -155.803)" fill="#fff" opacity="0.4"/>
        <path id="Path_302489" data-name="Path 302489" d="M297.633,324.654l-2.325,11.722,3.537,1.2,2.718-10.349Z" transform="translate(-180.566 -156.11)" fill="#407bff"/>
        <path id="Path_302490" data-name="Path 302490" d="M297.633,324.654l-2.325,11.722,3.537,1.2,2.718-10.349Z" transform="translate(-180.566 -156.11)" fill="#fff" opacity="0.6" style="mix-blend-mode: normal;isolation: isolate"/>
        <path id="Path_302491" data-name="Path 302491" d="M271.5,374.251c-1.4-29.136-2-44.245,2.79-50.27a21.165,21.165,0,0,1,12.3-7.112c6.22,15.771,33.384,25.615,34.094,25.879l.014,0c10.135,2.105,25.142,2.646,25.509,2.718a100.047,100.047,0,0,1-36.252-15.327,227.991,227.991,0,0,1-22.5-16.766s-16.184.878-19.177,14.25c-1.22,5.468.591,27.042,3.145,50.643A35.526,35.526,0,0,0,271.5,374.251Z" transform="translate(-191.247 -160.503)" opacity="0.2" style="mix-blend-mode: normal;isolation: isolate"/>
        <g id="Group_117076" data-name="Group 117076" transform="translate(13.97 234.903)">
          <path id="Path_302492" data-name="Path 302492" d="M222.883,376.37a1.175,1.175,0,0,1,.277-1.31,1.312,1.312,0,0,1,.942-.478,4.989,4.989,0,0,1,2.618.877c-.681-.9-1.2-1.851-.967-2.451.154-.39.545-.591,1.163-.6a1.873,1.873,0,0,1,1.456.625c1.216,1.319.957,4.334.945,4.476a.317.317,0,0,1-.1.206.3.3,0,0,1-.1.065h0a.341.341,0,0,1-.114.022,20.9,20.9,0,0,1-3.875-.3C224.077,377.3,223.164,376.951,222.883,376.37Zm1.276-1.145a.678.678,0,0,0-.5.242c-.313.385-.228.563-.2.621.325.673,2.646,1,4.6,1.062C226.95,376.3,225.174,375.132,224.159,375.225Zm2.762-2.169c-.185,0-.5.029-.567.189-.2.513.988,2.111,2.347,3.495a5.335,5.335,0,0,0-.8-3.268,1.229,1.229,0,0,0-.678-.389A1.369,1.369,0,0,0,226.921,373.056Z" transform="translate(-222.786 -372.41)" fill="#263238"/>
        </g>
        <g id="Group_117077" data-name="Group 117077" transform="translate(80.108 278.313)">
          <path id="Path_302493" data-name="Path 302493" d="M270.755,409.166a1.178,1.178,0,0,1-.313-1.3,1.308,1.308,0,0,1,.645-.835,5.019,5.019,0,0,1,2.742-.333c-1-.52-1.883-1.155-1.927-1.8-.028-.418.239-.768.793-1.039a1.884,1.884,0,0,1,1.583-.062c1.667.671,2.729,3.509,2.776,3.638a.305.305,0,0,1,.018.15h0a.3.3,0,0,1-.017.07h0a.334.334,0,0,1-.15.174h0l-.011.006c-.649.32-3.388,1.613-5.1,1.613A1.651,1.651,0,0,1,270.755,409.166Zm.66-1.581a.676.676,0,0,0-.345.431c-.117.482.038.606.088.646.581.467,2.818-.235,4.613-1.019C274.4,407.354,272.292,407.065,271.415,407.585Zm1.563-3.146c-.167.081-.445.243-.432.414.038.55,1.8,1.481,3.621,2.148a5.337,5.337,0,0,0-2.13-2.607,1.244,1.244,0,0,0-1.059.044Z" transform="translate(-270.384 -403.651)" fill="#263238"/>
        </g>
        <path id="Path_302494" data-name="Path 302494" d="M245.87,381c.4-.916-11.05-5.333-11.05-5.333s-10.049,3.8-17.417,2.3-5.491,4.2,1.936,7.624l18.373,8.473C242.989,396.5,241.763,390.486,245.87,381Z" transform="translate(-212.733 -136.237)" fill="#263238"/>
        <path id="Path_302495" data-name="Path 302495" d="M293.5,405.689c-.036-1-12.271-.068-12.271-.068s-7.44,7.752-14.736,9.561-3.156,6.152,5.023,6.053l20.23-.242C297.557,420.923,293.866,416.016,293.5,405.689Z" transform="translate(-193.263 -124.723)" fill="#263238"/>
        <g id="Group_117078" data-name="Group 117078" transform="translate(121.951 122.181)">
          <path id="Path_302496" data-name="Path 302496" d="M365.859,299.294s-39.093-13.722-43.923-5.237a64.784,64.784,0,0,0-3.322,7.815c-1.01,2.689-1.787,4.961-1.787,4.961a.044.044,0,0,1-.025-.019c-.046-.022-3.2-1.47-3.2-1.47l-13.1,39.091c20.822,11.55,50.267,12.892,62.324,4.676C382.921,335.425,365.859,299.294,365.859,299.294Z" transform="translate(-300.496 -291.288)" fill="#407bff"/>
        </g>
        <g id="Group_117079" data-name="Group 117079" transform="translate(121.951 122.181)" opacity="0.4">
          <path id="Path_302497" data-name="Path 302497" d="M365.859,299.294s-39.093-13.722-43.923-5.237a64.784,64.784,0,0,0-3.322,7.815c-1.01,2.689-1.787,4.961-1.787,4.961a.044.044,0,0,1-.025-.019c-.046-.022-3.2-1.47-3.2-1.47l-13.1,39.091c20.822,11.55,50.267,12.892,62.324,4.676C382.921,335.425,365.859,299.294,365.859,299.294Z" transform="translate(-300.496 -291.288)" fill="#fff"/>
        </g>
        <path id="Path_302498" data-name="Path 302498" d="M312.247,303.865l22.561,9.57s-11.58-9.763-20.772-14.529C313.025,301.593,312.247,303.865,312.247,303.865Z" transform="translate(-173.968 -166.14)" opacity="0.3" style="mix-blend-mode: normal;isolation: isolate"/>
        <g id="Group_117081" data-name="Group 117081" transform="translate(142.833 116.373)">
          <path id="Path_302499" data-name="Path 302499" d="M315.524,296.76l.79-9.651,43.692,5.807.579,9.316Z" transform="translate(-315.524 -287.109)" fill="#407bff"/>
          <path id="Path_302500" data-name="Path 302500" d="M315.524,296.76l.79-9.651,43.692,5.807.579,9.316Z" transform="translate(-315.524 -287.109)" fill="#fff" opacity="0.4"/>
          <g id="Group_117080" data-name="Group 117080" transform="translate(0.558 0.946)">
            <path id="Path_302501" data-name="Path 302501" d="M316.245,287.789l2.279.333-.709,7.518-1.89-.222Z" transform="translate(-315.926 -287.789)" fill="#263238"/>
            <path id="Path_302502" data-name="Path 302502" d="M319.55,288.249l24.637,3.585-.639,6.837-24.692-2.946Z" transform="translate(-314.784 -287.61)" fill="#263238"/>
            <path id="Path_302503" data-name="Path 302503" d="M351.174,299.383,338.2,297.84l.626-6.781h.013l11.714,1.7Z" transform="translate(-307.25 -286.515)" fill="#263238"/>
            <path id="Path_302504" data-name="Path 302504" d="M316.245,287.789l2.279.333-.709,7.518-1.89-.222Z" transform="translate(-315.926 -287.789)" opacity="0.2" style="mix-blend-mode: normal;isolation: isolate"/>
            <path id="Path_302505" data-name="Path 302505" d="M319.55,288.249l24.637,3.585-.639,6.837-24.692-2.946Z" transform="translate(-314.784 -287.61)" opacity="0.2" style="mix-blend-mode: normal;isolation: isolate"/>
            <path id="Path_302506" data-name="Path 302506" d="M351.174,299.383,338.2,297.84l.626-6.781h.013l11.714,1.7Z" transform="translate(-307.25 -286.515)" opacity="0.2" style="mix-blend-mode: normal;isolation: isolate"/>
          </g>
          <rect id="Rectangle_17811" data-name="Rectangle 17811" width="9.682" height="7.343" rx="0.937" transform="translate(19.496 11.071) rotate(-172.459)" fill="none" stroke="#fff" stroke-linecap="round" stroke-linejoin="round" stroke-width="1"/>
          <line id="Line_24" data-name="Line 24" x2="2.474" y2="0.391" transform="translate(16.224 6.796)" fill="none" stroke="#fff" stroke-linecap="round" stroke-linejoin="round" stroke-width="1"/>
        </g>
        <g id="Group_117082" data-name="Group 117082" transform="translate(119.282 133.532)">
          <path id="Path_302507" data-name="Path 302507" d="M312.471,299.458l3.643,1.922-12.353,41.988-5.186-1.029Z" transform="translate(-298.576 -299.458)" fill="#407bff"/>
          <path id="Path_302508" data-name="Path 302508" d="M312.471,299.458l3.643,1.922-12.353,41.988-5.186-1.029Z" transform="translate(-298.576 -299.458)" fill="#fff" opacity="0.6" style="mix-blend-mode: normal;isolation: isolate"/>
        </g>
        <g id="Group_117083" data-name="Group 117083" transform="translate(93.058 46.217)">
          <path id="Path_302509" data-name="Path 302509" d="M316.909,281.543H286.295a2.38,2.38,0,0,1-2.32-2.145l-4.263-40.63a1.934,1.934,0,0,1,1.951-2.147h30.614a2.382,2.382,0,0,1,2.321,2.147l4.263,40.63A1.933,1.933,0,0,1,316.909,281.543Z" transform="translate(-279.703 -236.62)" fill="#263238"/>
          <path id="Path_302510" data-name="Path 302510" d="M316.909,281.543H286.295a2.38,2.38,0,0,1-2.32-2.145l-4.263-40.63a1.934,1.934,0,0,1,1.951-2.147h30.614a2.382,2.382,0,0,1,2.321,2.147l4.263,40.63A1.933,1.933,0,0,1,316.909,281.543Z" transform="translate(-279.703 -236.62)" fill="#fff" opacity="0.6"/>
          <path id="Path_302511" data-name="Path 302511" d="M315.63,281.543H286.295a2.38,2.38,0,0,1-2.32-2.145l-4.263-40.63a1.934,1.934,0,0,1,1.951-2.147H311a2.38,2.38,0,0,1,2.321,2.147l4.263,40.63A1.933,1.933,0,0,1,315.63,281.543Z" transform="translate(-279.703 -236.62)" fill="#fff" opacity="0.2"/>
          <path id="Path_302512" data-name="Path 302512" d="M293.562,250.394a2.992,2.992,0,0,0-3.019,3.322,3.686,3.686,0,0,0,3.595,3.322,2.993,2.993,0,0,0,3.019-3.322A3.686,3.686,0,0,1,293.562,250.394Z" transform="translate(-275.486 -231.254)" fill="#263238"/>
          <path id="Path_302513" data-name="Path 302513" d="M302.817,239.847h-16.17a2.144,2.144,0,0,1-1.9-1.221l-.97-2.005h21.346l-.623,2.005A1.734,1.734,0,0,1,302.817,239.847Z" transform="translate(-278.115 -236.62)" opacity="0.3"/>
        </g>
        <path id="Path_302514" data-name="Path 302514" d="M359.215,329.484h-5.682s-7.1-21.316-11.241-39.38a131.032,131.032,0,0,1-2.654-14.493,41.548,41.548,0,0,1,1.376-16.091,40.309,40.309,0,0,1,7.2-14.2l-1.153-.069c10.756-.111,16.565,3.613,17.286,10.31.738,6.684-11.171,46.439-11.728,51.747C352.072,312.629,359.215,329.484,359.215,329.484Z" transform="translate(-163.397 -187.043)" fill="#407bff"/>
        <path id="Path_302515" data-name="Path 302515" d="M332.577,244.708s-11.372,17.922-14.419,25.547-1.3,29.426-1.3,29.426-5.821-26.243-2.075-39.253S325,244.745,332.577,244.708Z" transform="translate(-173.469 -187.253)" fill="#407bff"/>
        <path id="Path_302516" data-name="Path 302516" d="M365.013,254.288s-16.833,25.049-24.537,22.088c-9.848-3.788-24.952-24.724-24.952-24.724" transform="translate(-172.691 -184.548)" fill="none" stroke="#e9b376" stroke-linecap="round" stroke-linejoin="round" stroke-width="9.989"/>
        <path id="Path_302517" data-name="Path 302517" d="M359.965,263.755s-10,17.064-17.674,24.3a131.03,131.03,0,0,1-2.654-14.493,41.548,41.548,0,0,1,1.376-16.091c3.181-2.612,6.322-5.211,7.92-6.531C352.878,247.65,359.965,263.755,359.965,263.755Z" transform="translate(-163.397 -184.997)" opacity="0.2"/>
        <path id="Path_302518" data-name="Path 302518" d="M366.747,249.009c5.236,2.822,3.65,10.391-3.214,19.37s-19.287,21.1-25.811,18.889-13.909-10.891-13.909-10.891l4.758-13.449s9.36,7.1,11.308,6.734,11.472-12.692,14.222-16.516S361.067,245.947,366.747,249.009Z" transform="translate(-169.462 -186.041)" fill="#407bff"/>
        <path id="Path_302519" data-name="Path 302519" d="M286.235,250.306l-.2,2.667a3.06,3.06,0,0,1-2.6,2.8l-3.625.538.857-9.784,3.028.538A3.06,3.06,0,0,1,286.235,250.306Z" transform="translate(-186.603 -186.545)" fill="#ffb573"/>
      </g>
    </g>
  </g>
</svg>
