<svg xmlns="http://www.w3.org/2000/svg" xmlns:xlink="http://www.w3.org/1999/xlink" width="200" height="100" viewBox="0 0 350 134.579">
  <defs>
    <clipPath id="clip-Pharma_Logo">
      <rect width="350" height="134.579"/>
    </clipPath>
  </defs>
  <g id="Pharma_Logo" data-name="Pharma Logo" clip-path="url(#clip-Pharma_Logo)">
    <g id="Group_15" data-name="Group 15" transform="translate(-32.02 -26)">
      <g id="Group_14" data-name="Group 14" transform="translate(41.02 34)">
        <g id="Group_12" data-name="Group 12">
          <path id="Path_11" data-name="Path 11" d="M874.281,904.419v32.052a4.987,4.987,0,0,1-4.922,5.054H843.826a10.993,10.993,0,0,1-9.613-5.76,87.375,87.375,0,0,0-31.35-32.74,13.356,13.356,0,0,1-6.444-11.44V866.463a5.011,5.011,0,0,1,4.922-5.066h31.134a5,5,0,0,1,4.922,5.066v32.892h31.961A5,5,0,0,1,874.281,904.419Z" transform="translate(-754.338 -861.397)" fill="#006838"/>
          <path id="Path_12" data-name="Path 12" d="M768.727,971.246v26.477a6.691,6.691,0,0,0,6.691,6.69H804a6.691,6.691,0,0,0,6.691-6.691v-16.23c0-10.97-11.543-26.144-17.155-32.5-13.819-15.662-27.647-24.309-54.824-24.309H728.286c9.107,17.206,32.281,26.675,47.277,27.24-16.894.212-39.479-8.555-48.915-25.918.59,24.386,17.428,38.892,42.079,40.643,14.742,1.046,29.087.624,34.106,8.059,2.538,3.76,2.292,7.135,2.292,11.739l-.009,11.279A1.116,1.116,0,0,1,804,998.838H775.418a1.115,1.115,0,0,1-1.115-1.115V979.012C774.3,971.862,768.727,971.246,768.727,971.246Z" transform="translate(-726.648 -886.512)" fill="#88c250"/>
        </g>
        <g id="Group_13" data-name="Group 13" transform="translate(143.928 29.303)">
          <path id="Path_32" data-name="Path 32" d="M16.314-37.8H4.482v27.335h6.326V-18h5.506c7.3,0,11.871-3.788,11.871-9.88C28.185-34.012,23.617-37.8,16.314-37.8Zm-.351,14.644H10.808v-9.489h5.155c3.866,0,5.818,1.757,5.818,4.764C21.781-24.913,19.829-23.156,15.963-23.156ZM51.42-37.8v10.778H39V-37.8H32.676v27.335H39V-21.672H51.42v11.207h6.326V-37.8ZM84.652-10.465h6.639L79.068-37.8H72.82L60.636-10.465h6.482l2.421-5.858H82.231ZM71.57-21.126,75.9-31.591l4.335,10.465Zm46.782,10.661-6.131-8.786a8.887,8.887,0,0,0,5.623-8.63c0-6.131-4.569-9.919-11.871-9.919H94.141v27.335h6.326V-18.08h5.818l5.272,7.615Zm-6.912-17.416c0,2.968-1.953,4.764-5.818,4.764h-5.155v-9.528h5.155C109.488-32.645,111.441-30.888,111.441-27.881Zm42.213,17.416L153.576-37.8h-5.194L138.307-20.813,128.076-37.8h-5.233v27.335h5.936v-16.05l8.005,13.16h2.851l8.044-13.511.039,16.4Zm26.906,0H187.2L174.975-37.8h-6.248L156.544-10.465h6.482l2.421-5.858h12.691ZM167.478-21.126l4.335-10.465,4.335,10.465Z" transform="translate(-0.844 37.8)" fill="#2c6939"/>
          <path id="Path_31" data-name="Path 31" d="M0,0H187.96" transform="translate(0 42.12)" fill="none" stroke="#88c250" stroke-width="2"/>
          <path id="Path_33" data-name="Path 33" d="M1.846-14.221h.927L9.216-7.029H9.29v-7.193h.727V-4.159H9.632L2.654-12.152H2.595v7.764H1.846ZM17.41-4.389a1.409,1.409,0,0,1-.5-.419,1,1,0,0,1-.2-.619q-.267.2-.523.415a3.917,3.917,0,0,1-.556.389,3.137,3.137,0,0,1-.667.285,2.934,2.934,0,0,1-.849.111,2.14,2.14,0,0,1-.8-.145,1.765,1.765,0,0,1-.608-.4,1.766,1.766,0,0,1-.386-.6,2.026,2.026,0,0,1-.137-.749A1.977,1.977,0,0,1,12.368-7a2.336,2.336,0,0,1,.53-.7,3.935,3.935,0,0,1,.782-.549,7.572,7.572,0,0,1,.949-.43q.5-.189,1.038-.337t1.038-.274v-.475a4.374,4.374,0,0,0-.074-.875,1.519,1.519,0,0,0-.23-.575.857.857,0,0,0-.4-.311,1.6,1.6,0,0,0-.575-.093,1.354,1.354,0,0,0-.586.126,1.6,1.6,0,0,0-.471.337,1.753,1.753,0,0,0-.334.5,2.181,2.181,0,0,0-.174.6H12.486a1.851,1.851,0,0,1,.337-.875,2.448,2.448,0,0,1,.7-.649,3.466,3.466,0,0,1,.96-.4,4.384,4.384,0,0,1,1.116-.141,4.586,4.586,0,0,1,1.246.145,2.136,2.136,0,0,1,.808.4,1.44,1.44,0,0,1,.434.634,2.511,2.511,0,0,1,.13.827v4.686a1,1,0,0,0,.2.619,1.409,1.409,0,0,0,.5.419Zm-.7-4.419q-.326.1-.675.237t-.682.3a7.213,7.213,0,0,0-.638.36,3.324,3.324,0,0,0-.534.415,1.96,1.96,0,0,0-.363.467,1.054,1.054,0,0,0-.133.512,1.361,1.361,0,0,0,.1.53,1.525,1.525,0,0,0,.274.437,1.27,1.27,0,0,0,.393.3,1.045,1.045,0,0,0,.46.108,1.72,1.72,0,0,0,.482-.067,2.305,2.305,0,0,0,.445-.182,4.469,4.469,0,0,0,.43-.263q.215-.148.437-.319Zm5.547-5.754h.43v2.58h1.691v.645H22.682V-5.99a.807.807,0,0,0,.063.319.845.845,0,0,0,.171.26.771.771,0,0,0,.256.174.826.826,0,0,0,.326.063.869.869,0,0,0,.46-.126,1.463,1.463,0,0,0,.363-.311l.378.252a2.367,2.367,0,0,1-.808.83,2.319,2.319,0,0,1-1.231.3,1.564,1.564,0,0,1-.66-.13,1.226,1.226,0,0,1-.463-.363,1.578,1.578,0,0,1-.271-.556,2.688,2.688,0,0,1-.089-.716v-5.346h-1.32v-.282l1.32-.363V-14.14Zm5.947,2.58v5.406a1.151,1.151,0,0,0,.13.534,1.354,1.354,0,0,0,.36.437,1.807,1.807,0,0,0,.53.293,1.911,1.911,0,0,0,.649.108,1.361,1.361,0,0,0,.478-.1,2.376,2.376,0,0,0,.5-.263,2.724,2.724,0,0,0,.456-.393,2.722,2.722,0,0,0,.36-.478v-5.547h1.5v7.593h-1.5V-5.812a3.125,3.125,0,0,1-.5.615,3.842,3.842,0,0,1-.649.5,3.534,3.534,0,0,1-.719.341,2.189,2.189,0,0,1-.7.126,2.37,2.37,0,0,1-.934-.185,2.447,2.447,0,0,1-.764-.5,2.369,2.369,0,0,1-.515-.749,2.241,2.241,0,0,1-.189-.912v-5.406Zm8.705-.141h.23l.2,1.55a2.754,2.754,0,0,1,.445-.623,3.182,3.182,0,0,1,.59-.489,2.87,2.87,0,0,1,.682-.323,2.386,2.386,0,0,1,.73-.115,2.457,2.457,0,0,1,.656.089,2.011,2.011,0,0,1,.6.282l-.475,1.268a1.446,1.446,0,0,0-.311-.263,1.565,1.565,0,0,0-.334-.156,1.53,1.53,0,0,0-.349-.07q-.178-.015-.356-.015a1.9,1.9,0,0,0-.552.082,2,2,0,0,0-.515.241,2.05,2.05,0,0,0-.452.408,2.648,2.648,0,0,0-.363.582v5.287H35.829v-7.319ZM47.115-4.389a1.409,1.409,0,0,1-.5-.419,1,1,0,0,1-.2-.619q-.267.2-.523.415a3.918,3.918,0,0,1-.556.389,3.137,3.137,0,0,1-.667.285,2.934,2.934,0,0,1-.849.111,2.14,2.14,0,0,1-.8-.145,1.765,1.765,0,0,1-.608-.4,1.766,1.766,0,0,1-.386-.6,2.026,2.026,0,0,1-.137-.749A1.977,1.977,0,0,1,42.073-7a2.336,2.336,0,0,1,.53-.7,3.935,3.935,0,0,1,.782-.549,7.572,7.572,0,0,1,.949-.43q.5-.189,1.038-.337t1.038-.274v-.475a4.374,4.374,0,0,0-.074-.875,1.519,1.519,0,0,0-.23-.575.857.857,0,0,0-.4-.311,1.6,1.6,0,0,0-.575-.093,1.354,1.354,0,0,0-.586.126,1.6,1.6,0,0,0-.471.337,1.753,1.753,0,0,0-.334.5,2.18,2.18,0,0,0-.174.6H42.191a1.851,1.851,0,0,1,.337-.875,2.448,2.448,0,0,1,.7-.649,3.466,3.466,0,0,1,.96-.4,4.384,4.384,0,0,1,1.116-.141,4.586,4.586,0,0,1,1.246.145,2.136,2.136,0,0,1,.808.4,1.44,1.44,0,0,1,.434.634,2.512,2.512,0,0,1,.13.827v4.686a1,1,0,0,0,.2.619,1.409,1.409,0,0,0,.5.419Zm-.7-4.419q-.326.1-.675.237t-.682.3a7.214,7.214,0,0,0-.638.36,3.324,3.324,0,0,0-.534.415,1.96,1.96,0,0,0-.363.467,1.054,1.054,0,0,0-.133.512,1.361,1.361,0,0,0,.1.53,1.525,1.525,0,0,0,.274.437,1.27,1.27,0,0,0,.393.3,1.045,1.045,0,0,0,.46.108,1.72,1.72,0,0,0,.482-.067,2.305,2.305,0,0,0,.445-.182,4.47,4.47,0,0,0,.43-.263q.215-.148.437-.319Zm5.465,4.419H50.363V-15.422l1.075-.43h.437Zm5.776-9.832h1.691L63.169-6.68h.082L67-14.221h1.661v9.832H67v-8.06h-.052l-4.034,8.06h-.341L58.5-12.382h-.111v7.994h-.734Zm16.892,10a3.658,3.658,0,0,1-1.45-.289A3.776,3.776,0,0,1,71.911-5.3a3.7,3.7,0,0,1-.8-1.168A3.529,3.529,0,0,1,70.821-7.9a5.148,5.148,0,0,1,.267-1.687,4.005,4.005,0,0,1,.756-1.338A3.482,3.482,0,0,1,73.02-11.8a3.589,3.589,0,0,1,1.531-.319,3.469,3.469,0,0,1,1.364.263,3.393,3.393,0,0,1,1.071.7,3.173,3.173,0,0,1,.7,1.02,3.032,3.032,0,0,1,.248,1.209H72.275a4.892,4.892,0,0,0,.2,1.416,3.58,3.58,0,0,0,.552,1.127,2.62,2.62,0,0,0,.845.742,2.209,2.209,0,0,0,1.075.267,2.812,2.812,0,0,0,.942-.159,3.325,3.325,0,0,0,.819-.419,2.929,2.929,0,0,0,.627-.593,2.067,2.067,0,0,0,.363-.69l.437.193a3.511,3.511,0,0,1-.526,1.1,4.288,4.288,0,0,1-.849.894,4.122,4.122,0,0,1-1.057.6A3.163,3.163,0,0,1,74.544-4.226Zm1.5-5.309a2.09,2.09,0,0,0-.152-.8,1.962,1.962,0,0,0-.419-.641,1.981,1.981,0,0,0-.623-.426,1.884,1.884,0,0,0-.764-.156,1.47,1.47,0,0,0-.653.152,1.826,1.826,0,0,0-.556.423,2.3,2.3,0,0,0-.4.641,2.436,2.436,0,0,0-.189.8Zm9.439,4.412a3.914,3.914,0,0,1-.564.374,4.159,4.159,0,0,1-.634.282,4.626,4.626,0,0,1-.664.178,3.512,3.512,0,0,1-.653.063,2.609,2.609,0,0,1-1.249-.311A3.364,3.364,0,0,1,80.7-5.375,4.085,4.085,0,0,1,80.016-6.6a4.336,4.336,0,0,1-.252-1.479,3.728,3.728,0,0,1,.315-1.5,4.387,4.387,0,0,1,.856-1.294,4.219,4.219,0,0,1,1.264-.908,3.578,3.578,0,0,1,1.546-.341,2.261,2.261,0,0,1,.968.193,3.15,3.15,0,0,1,.767.512v-4l1.06-.43h.437V-4.389h-1.5Zm0-4.442a1.939,1.939,0,0,0-.167-.812,2.088,2.088,0,0,0-.434-.63,1.947,1.947,0,0,0-.6-.408,1.709,1.709,0,0,0-.678-.145,1.688,1.688,0,0,0-.845.222,2.164,2.164,0,0,0-.686.627,3.235,3.235,0,0,0-.463.964,4.224,4.224,0,0,0-.171,1.235,4.789,4.789,0,0,0,.185,1.357,3.862,3.862,0,0,0,.508,1.1,2.566,2.566,0,0,0,.756.742,1.727,1.727,0,0,0,.931.271,1.884,1.884,0,0,0,.478-.063,2.341,2.341,0,0,0,.456-.171,2.683,2.683,0,0,0,.4-.248,2.279,2.279,0,0,0,.33-.3Zm4.271-2.128,1.06-.43h.437v7.734h-1.5Zm-.119-3.2a.838.838,0,0,1,.067-.334.868.868,0,0,1,.185-.274.868.868,0,0,1,.274-.185.838.838,0,0,1,.334-.067.838.838,0,0,1,.334.067.868.868,0,0,1,.274.185.868.868,0,0,1,.185.274.838.838,0,0,1,.067.334.838.838,0,0,1-.067.334.868.868,0,0,1-.185.274.868.868,0,0,1-.274.185.838.838,0,0,1-.334.067.838.838,0,0,1-.334-.067.868.868,0,0,1-.274-.185.868.868,0,0,1-.185-.274A.838.838,0,0,1,89.633-14.889Zm9.373,5.042a3.872,3.872,0,0,0-.222-.6,2.285,2.285,0,0,0-.36-.552,1.788,1.788,0,0,0-.515-.4,1.479,1.479,0,0,0-.7-.156,2,2,0,0,0-.919.208,2.062,2.062,0,0,0-.69.564,2.547,2.547,0,0,0-.43.83,3.362,3.362,0,0,0-.148,1.008,4.893,4.893,0,0,0,.189,1.376,3.81,3.81,0,0,0,.534,1.138,2.661,2.661,0,0,0,.83.775,2.1,2.1,0,0,0,1.086.285,2.312,2.312,0,0,0,.916-.167,2.162,2.162,0,0,0,.675-.449,2.871,2.871,0,0,0,.493-.656,6.614,6.614,0,0,0,.371-.79l.452.185a5.3,5.3,0,0,1-.519,1.275,3.787,3.787,0,0,1-.767.953,3.124,3.124,0,0,1-.994.593,3.432,3.432,0,0,1-1.2.2,3.383,3.383,0,0,1-1.4-.293,3.525,3.525,0,0,1-1.135-.8,3.886,3.886,0,0,1-.764-1.194,3.788,3.788,0,0,1-.282-1.461,4.269,4.269,0,0,1,.141-1.1,4.3,4.3,0,0,1,.4-.99,4.112,4.112,0,0,1,.615-.838,4,4,0,0,1,.8-.649,3.857,3.857,0,0,1,.938-.419,3.648,3.648,0,0,1,1.042-.148,3.564,3.564,0,0,1,.868.1,3.244,3.244,0,0,1,.764.293,2.5,2.5,0,0,1,.615.467,2.1,2.1,0,0,1,.415.619Zm3.819-1.846,1.06-.43h.437v7.734h-1.5Zm-.119-3.2a.838.838,0,0,1,.067-.334.868.868,0,0,1,.185-.274.868.868,0,0,1,.274-.185.838.838,0,0,1,.334-.067.838.838,0,0,1,.334.067.868.868,0,0,1,.274.185.868.868,0,0,1,.185.274.838.838,0,0,1,.067.334.838.838,0,0,1-.067.334.868.868,0,0,1-.185.274.868.868,0,0,1-.274.185.838.838,0,0,1-.334.067.838.838,0,0,1-.334-.067.868.868,0,0,1-.274-.185.868.868,0,0,1-.185-.274A.838.838,0,0,1,102.706-14.889Zm5.472,2.766h.43v1.535a5.057,5.057,0,0,1,1.431-1.153,3.255,3.255,0,0,1,1.505-.382,1.6,1.6,0,0,1,.745.178,1.94,1.94,0,0,1,.6.489,2.357,2.357,0,0,1,.408.73,2.658,2.658,0,0,1,.148.894v5.443h-1.505V-9.572a2.235,2.235,0,0,0-.089-.664,1.354,1.354,0,0,0-.252-.478,1.092,1.092,0,0,0-.382-.293,1.154,1.154,0,0,0-.486-.1,1.728,1.728,0,0,0-.5.082,3.231,3.231,0,0,0-.545.226,4.319,4.319,0,0,0-.552.345,4.92,4.92,0,0,0-.526.445v5.621H107.1V-11.7Zm11.152,7.9a3.658,3.658,0,0,1-1.45-.289A3.776,3.776,0,0,1,116.7-5.3a3.7,3.7,0,0,1-.8-1.168,3.529,3.529,0,0,1-.293-1.427,5.147,5.147,0,0,1,.267-1.687,4.005,4.005,0,0,1,.756-1.338,3.482,3.482,0,0,1,1.175-.882,3.589,3.589,0,0,1,1.531-.319,3.469,3.469,0,0,1,1.364.263,3.393,3.393,0,0,1,1.071.7,3.173,3.173,0,0,1,.7,1.02,3.032,3.032,0,0,1,.248,1.209h-5.658a4.892,4.892,0,0,0,.2,1.416,3.58,3.58,0,0,0,.552,1.127,2.62,2.62,0,0,0,.845.742,2.209,2.209,0,0,0,1.075.267,2.812,2.812,0,0,0,.942-.159,3.325,3.325,0,0,0,.819-.419,2.929,2.929,0,0,0,.627-.593,2.067,2.067,0,0,0,.363-.69l.438.193a3.511,3.511,0,0,1-.526,1.1,4.288,4.288,0,0,1-.849.894,4.122,4.122,0,0,1-1.057.6A3.163,3.163,0,0,1,119.331-4.226Zm1.5-5.309a2.09,2.09,0,0,0-.152-.8,1.962,1.962,0,0,0-.419-.641,1.981,1.981,0,0,0-.623-.426,1.884,1.884,0,0,0-.764-.156,1.469,1.469,0,0,0-.653.152,1.826,1.826,0,0,0-.556.423,2.3,2.3,0,0,0-.4.641,2.436,2.436,0,0,0-.189.8Z" transform="translate(29.229 66.223)" fill="#707070"/>
        </g>
      </g>
    </g>
  </g>
</svg>
